<?xml version="1.0" encoding="utf-8"?>
<!-- Generator: Adobe Illustrator 27.5.0, SVG Export Plug-In . SVG Version: 6.00 Build 0)  -->
<svg version="1.1" id="Layer_1" xmlns="http://www.w3.org/2000/svg" xmlns:xlink="http://www.w3.org/1999/xlink" x="0px" y="0px"
	 viewBox="0 0 332.12 294.936" style="enable-background:new 0 0 332.12 294.936;" xml:space="preserve">
<g>
	<g>
		<path style="fill:#D6EAE2;" d="M311.873,170.224c0.313-32.494-8.365-66.086-20.707-92.48c-9.933-21.24-24.85-39.756-44.886-52.157
			c-21.465-13.286-50.959-14.289-74.892-7.84c-49.451,13.323-67.652,59.413-103.202,90.775
			c-14.77,13.03-33.074,22.566-45.793,37.847c-12.914,15.516-15.211,40.868-10.353,59.82c7.565,29.51,33.361,49.507,60.465,60.528
			c22.082,8.979,46.019,12.382,69.781,14.268c26.395,2.094,51.807,0.708,77.977-2.2c23.719-2.635,45.341-10.502,62.564-27.684
			C304.638,229.344,311.585,200.134,311.873,170.224z"/>
		<path style="fill:#D6EAE2;" d="M318.827,171.607c0.137-16.886-2.041-33.758-5.989-50.164
			c-3.688-15.325-8.864-30.416-15.782-44.594c-6.382-13.078-14.787-25.225-25.219-35.404c-10.325-10.076-22.493-18.349-36.398-22.51
			c-14.133-4.229-29.293-4.827-43.853-2.787c-13.507,1.893-26.553,6.233-38.247,13.294c-21.628,13.06-36.913,33.638-52.787,52.773
			c-8.241,9.934-16.794,19.692-26.56,28.17c-11.757,10.207-25.325,18.12-36.823,28.645c-5.138,4.704-9.92,9.878-13.279,16.022
			c-3.267,5.975-5.349,12.562-6.526,19.253c-2.317,13.167-1.417,27.177,3.154,39.777c9.305,25.648,32.622,43.315,57.024,53.577
			c15.85,6.665,32.755,10.399,49.749,12.684c17.719,2.383,35.615,3.504,53.492,3.222c9.052-0.143,18.097-0.617,27.122-1.33
			c8.466-0.669,16.983-1.37,25.38-2.664c14.278-2.199,28.284-6.665,40.592-14.342c12.561-7.834,23.067-18.8,30.398-31.657
			c7.155-12.549,11.204-26.62,13.112-40.883C318.322,185.7,318.751,178.655,318.827,171.607c0.003-0.306-0.472-0.306-0.475,0
			c-0.157,14.521-1.834,29.123-6.299,42.988c-4.503,13.982-11.959,26.912-22.326,37.369c-10.373,10.463-23.21,18.045-37.188,22.606
			c-15.232,4.97-31.374,6.22-47.262,7.392c-17.734,1.308-35.553,1.627-53.301,0.39c-17.119-1.194-34.306-3.225-50.968-7.435
			c-27.233-6.881-54.957-20.626-71.351-44.281c-7.781-11.227-12.153-24.264-12.895-37.89c-0.738-13.56,1.624-27.988,8.834-39.684
			c3.868-6.275,9.305-11.551,14.874-16.315c5.783-4.948,11.983-9.372,18.135-13.842c5.913-4.296,11.796-8.65,17.248-13.527
			c4.709-4.212,9.15-8.715,13.412-13.377c16.655-18.219,30.541-39.113,49.383-55.266c9.631-8.257,20.522-14.974,32.515-19.201
			c13.501-4.759,28.132-6.661,42.408-5.85c14.804,0.841,29.281,4.858,41.732,13.042c12.259,8.058,22.715,18.657,31.044,30.706
			c8.532,12.343,14.706,26.152,19.622,40.285c5.401,15.526,9.189,31.654,11.078,47.988c0.918,7.934,1.369,15.917,1.304,23.905
			C318.35,171.912,318.825,171.913,318.827,171.607z"/>
		<path style="fill:#D6EAE2;" d="M310.997,163.964c0.137-16.886-2.041-33.758-5.989-50.164
			c-3.688-15.325-8.864-30.416-15.782-44.594c-6.382-13.078-14.787-25.225-25.219-35.404c-10.325-10.076-22.493-18.349-36.398-22.51
			c-14.133-4.229-29.293-4.827-43.853-2.787c-13.507,1.893-26.553,6.233-38.246,13.294c-21.628,13.06-36.913,33.638-52.788,52.773
			c-8.241,9.934-16.794,19.692-26.56,28.17c-11.757,10.207-25.325,18.12-36.823,28.645c-5.138,4.704-9.92,9.878-13.279,16.022
			c-3.267,5.975-5.349,12.562-6.527,19.253c-2.317,13.167-1.417,27.177,3.154,39.777c9.305,25.648,32.622,43.315,57.024,53.577
			c15.85,6.665,32.755,10.399,49.749,12.684c17.719,2.383,35.615,3.504,53.492,3.222c9.052-0.143,18.097-0.617,27.122-1.33
			c8.466-0.669,16.983-1.37,25.38-2.664c14.278-2.199,28.284-6.665,40.592-14.342c12.561-7.834,23.067-18.8,30.398-31.657
			c7.155-12.549,11.204-26.62,13.112-40.883C310.492,178.057,310.921,171.012,310.997,163.964c0.003-0.306-0.472-0.306-0.475,0
			c-0.157,14.521-1.834,29.123-6.299,42.988c-4.503,13.982-11.959,26.912-22.326,37.369c-10.373,10.463-23.21,18.045-37.188,22.606
			c-15.232,4.97-31.374,6.22-47.262,7.392c-17.735,1.308-35.553,1.627-53.302,0.39c-17.119-1.194-34.306-3.225-50.968-7.435
			c-27.233-6.881-54.957-20.626-71.351-44.281c-7.781-11.227-12.153-24.264-12.895-37.89c-0.738-13.559,1.624-27.988,8.834-39.684
			c3.868-6.275,9.305-11.551,14.874-16.315c5.783-4.948,11.983-9.372,18.135-13.842c5.913-4.296,11.796-8.649,17.248-13.527
			c4.709-4.212,9.15-8.715,13.412-13.377c16.655-18.219,30.541-39.113,49.383-55.267c9.631-8.257,20.522-14.974,32.515-19.201
			c13.501-4.759,28.132-6.661,42.408-5.85c14.804,0.841,29.281,4.858,41.732,13.042c12.259,8.058,22.715,18.657,31.044,30.706
			c8.532,12.342,14.706,26.152,19.622,40.285c5.401,15.526,9.189,31.654,11.078,47.988c0.918,7.934,1.369,15.917,1.304,23.905
			C310.52,164.269,310.995,164.27,310.997,163.964z"/>
		<path style="fill:#D6EAE2;" d="M323.811,165.521c0.137-16.682-2.071-33.345-6.059-49.53c-3.726-15.119-8.951-30.013-15.939-43.944
			c-12.689-25.294-34.365-48.791-62.304-56.659c-13.964-3.932-28.85-4.441-43.173-2.44c-13.473,1.883-26.501,6.16-38.207,13.134
			c-21.528,12.827-36.847,33.073-52.775,51.905c-8.3,9.812-16.921,19.447-26.758,27.758c-11.657,9.849-24.993,17.526-36.367,27.728
			c-5.242,4.701-10.116,9.886-13.518,16.095c-3.231,5.896-5.291,12.403-6.434,19.014c-2.245,12.975-1.264,26.76,3.406,39.111
			c9.603,25.395,33.278,42.55,57.645,52.446c15.641,6.352,32.257,9.917,48.95,12.123c17.722,2.342,35.618,3.44,53.492,3.163
			c8.954-0.139,17.902-0.595,26.83-1.283c8.417-0.648,16.88-1.335,25.235-2.572c14.204-2.103,28.165-6.388,40.512-13.83
			c12.567-7.573,23.182-18.264,30.631-30.906c7.252-12.307,11.397-26.188,13.35-40.284
			C323.291,179.582,323.733,172.553,323.811,165.521c0.003-0.306-0.472-0.306-0.475,0c-0.159,14.335-1.855,28.756-6.37,42.411
			c-4.607,13.932-12.247,26.722-22.783,36.983c-10.45,10.177-23.285,17.46-37.166,21.831c-15.28,4.812-31.446,6.005-47.34,7.137
			c-17.543,1.25-35.164,1.542-52.718,0.341c-16.93-1.159-33.923-3.122-50.427-7.165c-27.195-6.662-55.112-19.993-71.746-43.393
			c-7.793-10.963-12.245-23.751-13.027-37.172c-0.779-13.374,1.587-27.608,8.773-39.101c3.822-6.112,9.169-11.232,14.644-15.857
			c5.823-4.918,12.07-9.298,18.271-13.719c5.902-4.209,11.781-8.468,17.24-13.248c4.7-4.116,9.139-8.522,13.4-13.089
			c16.639-17.832,30.541-38.331,49.25-54.175c9.66-8.181,20.565-14.82,32.542-19.004c13.444-4.697,27.986-6.59,42.192-5.861
			c14.581,0.748,29.028,4.475,41.436,12.328c12.324,7.8,22.911,18.144,31.371,29.999c8.615,12.073,14.873,25.638,19.855,39.564
			c5.469,15.289,9.316,31.2,11.251,47.327c0.95,7.917,1.417,15.888,1.351,23.862C323.334,165.827,323.809,165.827,323.811,165.521z"
			/>
		<path style="fill:#D6EAE2;" d="M91.599,38.267c-6.436,6.022-9.843,16.453-1.48,21.822c3.173,2.037,7.291,2.297,10.891,1.178
			c4.68-1.455,9.587-5.403,11.84-9.789c5.187-10.096-2.166-19.682-13.207-17.625C96.843,34.376,94.009,36.013,91.599,38.267z"/>
		<path style="fill:#D6EAE2;" d="M297.874,238.856c-0.295,1.993-0.402,4.248,1.094,6.052c6.623,7.989,17.732-10.195,11.64-17.154
			C305.979,222.469,298.965,231.48,297.874,238.856z"/>
		<path style="fill:#D6EAE2;" d="M29.937,113.735c-3.28-3.206-9.86-1.666-12.102,2.549c-1.296,2.437-0.872,5.416,1.027,7.209
			s5.156,2.289,7.882,1.201c2.277-0.909,4.098-2.854,4.715-5.009C32.073,117.542,31.486,115.248,29.937,113.735z"/>
	</g>
	<g>
		<g>
			<g>
				<g>
					<rect x="83.981" y="62.586" style="fill:#BBA189;" width="85.547" height="123.624"/>
					<rect x="87.28" y="65.191" style="fill:#695C4D;" width="79.092" height="118.004"/>
					<rect x="88.204" y="66.821" style="fill:#D8EFF3;" width="77.1" height="115.153"/>
					<rect x="88.204" y="124.618" style="fill:#D8EFF3;" width="77.1" height="2.669"/>
				</g>
				<g>
					<rect x="86.319" y="126.557" style="fill:#BBA189;" width="80.871" height="2.363"/>
				</g>
			</g>
			<g>
				<path style="fill:#8C8E90;" d="M174.538,60.968H79.656c-0.684,0-1.238-0.554-1.238-1.238c0-0.684,0.554-1.238,1.238-1.238
					h94.881c0.684,0,1.238,0.554,1.238,1.238C175.776,60.414,175.222,60.968,174.538,60.968z"/>
				<g>
					<g>
						<g>
							<path style="fill:#DBD7D5;" d="M81.87,57.428v131.707c0,0,0.877-1.096,3.616,0c2.739,1.096,4.712,0.986,7.013,0
								c2.301-0.986,4.602-0.767,5.588,0.219c0.986,0.986,4.493,1.205,6.684-0.329V57.428H81.87z"/>
						</g>
						<g>
							<path style="fill:#90B1B8;" d="M81.87,57.428v131.707c0,0,0.877-1.096,3.616,0c2.739,1.096,4.712,0.986,7.013,0
								c2.301-0.986,4.602-0.767,5.588,0.219c0.986,0.986,4.493,1.205,6.684-0.329V57.428H81.87z"/>
						</g>
						<g>
							<path style="fill:#7A969C;" d="M83.732,188.671c0.474,0.048,1.052,0.184,1.754,0.465c0.494,0.198,0.962,0.355,1.413,0.476
								L85.976,62.586L83.732,188.671z"/>
							<path style="fill:#7A969C;" d="M94.472,188.574c1.266-0.186,2.404-0.015,3.161,0.435L96.714,63.455L94.472,188.574z"/>
						</g>
						<g>
							<path style="fill:#8C8E90;" d="M85.031,61.784L85.031,61.784c-0.157,0-0.285-0.128-0.285-0.285v-3.376
								c0-0.156,0.128-0.285,0.285-0.285l0,0c0.157,0,0.285,0.128,0.285,0.285V61.5C85.316,61.656,85.188,61.784,85.031,61.784z"/>
							<path style="fill:#8C8E90;" d="M88.418,61.784L88.418,61.784c-0.156,0-0.284-0.128-0.284-0.285v-3.376
								c0-0.156,0.128-0.285,0.284-0.285l0,0c0.157,0,0.285,0.128,0.285,0.285V61.5C88.703,61.656,88.575,61.784,88.418,61.784z"/>
							<path style="fill:#8C8E90;" d="M91.805,61.784L91.805,61.784c-0.157,0-0.285-0.128-0.285-0.285v-3.376
								c0-0.156,0.128-0.285,0.285-0.285l0,0c0.157,0,0.285,0.128,0.285,0.285V61.5C92.09,61.656,91.962,61.784,91.805,61.784z"/>
							<path style="fill:#8C8E90;" d="M95.193,61.784L95.193,61.784c-0.157,0-0.285-0.128-0.285-0.285v-3.376
								c0-0.156,0.128-0.285,0.285-0.285l0,0c0.156,0,0.285,0.128,0.285,0.285V61.5C95.477,61.656,95.349,61.784,95.193,61.784z"/>
							<path style="fill:#8C8E90;" d="M98.58,61.784L98.58,61.784c-0.157,0-0.285-0.128-0.285-0.285v-3.376
								c0-0.156,0.128-0.285,0.285-0.285l0,0c0.156,0,0.285,0.128,0.285,0.285V61.5C98.864,61.656,98.736,61.784,98.58,61.784z"/>
							<path style="fill:#8C8E90;" d="M101.967,61.784L101.967,61.784c-0.156,0-0.284-0.128-0.284-0.285v-3.376
								c0-0.156,0.128-0.285,0.284-0.285l0,0c0.157,0,0.285,0.128,0.285,0.285V61.5C102.251,61.656,102.123,61.784,101.967,61.784z"
								/>
						</g>
					</g>
					<g>
						<g>
							<path style="fill:#DBD7D5;" d="M172.324,57.428v131.707c0,0-0.877-1.096-3.616,0c-2.739,1.096-4.712,0.986-7.013,0
								c-2.301-0.986-4.602-0.767-5.588,0.219c-0.986,0.986-4.492,1.205-6.684-0.329V57.428H172.324z"/>
						</g>
						<g>
							<path style="fill:#90B1B8;" d="M172.324,57.428v131.707c0,0-0.877-1.096-3.616,0c-2.739,1.096-4.712,0.986-7.013,0
								c-2.301-0.986-4.602-0.767-5.588,0.219c-0.986,0.986-4.492,1.205-6.684-0.329V57.428H172.324z"/>
						</g>
						<g>
							<path style="fill:#7A969C;" d="M170.462,188.671c-0.474,0.048-1.052,0.184-1.754,0.465c-0.494,0.198-0.962,0.355-1.413,0.476
								l0.923-127.026L170.462,188.671z"/>
							<path style="fill:#7A969C;" d="M159.722,188.574c-1.266-0.186-2.404-0.015-3.161,0.435l0.919-125.554L159.722,188.574z"/>
						</g>
						<g>
							<path style="fill:#8C8E90;" d="M169.163,61.784L169.163,61.784c0.156,0,0.284-0.128,0.284-0.285v-3.376
								c0-0.156-0.128-0.285-0.284-0.285l0,0c-0.157,0-0.285,0.128-0.285,0.285V61.5C168.878,61.656,169.006,61.784,169.163,61.784z
								"/>
							<path style="fill:#8C8E90;" d="M165.776,61.784L165.776,61.784c0.156,0,0.285-0.128,0.285-0.285v-3.376
								c0-0.156-0.128-0.285-0.285-0.285l0,0c-0.157,0-0.285,0.128-0.285,0.285V61.5C165.491,61.656,165.619,61.784,165.776,61.784z
								"/>
							<path style="fill:#8C8E90;" d="M162.389,61.784L162.389,61.784c0.157,0,0.285-0.128,0.285-0.285v-3.376
								c0-0.156-0.128-0.285-0.285-0.285l0,0c-0.157,0-0.285,0.128-0.285,0.285V61.5C162.104,61.656,162.232,61.784,162.389,61.784z
								"/>
							<path style="fill:#8C8E90;" d="M159.001,61.784L159.001,61.784c0.157,0,0.285-0.128,0.285-0.285v-3.376
								c0-0.156-0.128-0.285-0.285-0.285l0,0c-0.156,0-0.285,0.128-0.285,0.285V61.5C158.717,61.656,158.845,61.784,159.001,61.784z
								"/>
							<path style="fill:#8C8E90;" d="M155.614,61.784L155.614,61.784c0.157,0,0.285-0.128,0.285-0.285v-3.376
								c0-0.156-0.128-0.285-0.285-0.285l0,0c-0.156,0-0.285,0.128-0.285,0.285V61.5C155.33,61.656,155.458,61.784,155.614,61.784z"
								/>
							<path style="fill:#8C8E90;" d="M152.227,61.784L152.227,61.784c0.156,0,0.284-0.128,0.284-0.285v-3.376
								c0-0.156-0.128-0.285-0.284-0.285l0,0c-0.157,0-0.285,0.128-0.285,0.285V61.5C151.943,61.656,152.071,61.784,152.227,61.784z
								"/>
						</g>
					</g>
				</g>
			</g>
		</g>
		<g>
			<g>
				<g>
					<rect x="181.486" y="62.586" style="fill:#BBA189;" width="85.547" height="123.624"/>
					<rect x="184.786" y="65.191" style="fill:#695C4D;" width="79.093" height="118.004"/>
					<rect x="185.71" y="66.821" style="fill:#D8EFF3;" width="77.1" height="115.153"/>
					<rect x="185.71" y="124.618" style="fill:#D8EFF3;" width="77.1" height="2.669"/>
				</g>
				<g>
					<rect x="183.824" y="126.557" style="fill:#BBA189;" width="80.871" height="2.363"/>
				</g>
			</g>
			<g>
				<path style="fill:#8C8E90;" d="M272.043,60.968h-94.881c-0.684,0-1.238-0.554-1.238-1.238c0-0.684,0.554-1.238,1.238-1.238
					h94.881c0.684,0,1.238,0.554,1.238,1.238C273.282,60.414,272.727,60.968,272.043,60.968z"/>
				<g>
					<g>
						<g>
							<path style="fill:#DBD7D5;" d="M179.376,57.428v131.707c0,0,0.877-1.096,3.616,0c2.739,1.096,4.712,0.986,7.013,0
								c2.301-0.986,4.602-0.767,5.588,0.219c0.986,0.986,4.493,1.205,6.684-0.329V57.428H179.376z"/>
						</g>
						<g>
							<path style="fill:#90B1B8;" d="M179.376,57.428v131.707c0,0,0.877-1.096,3.616,0c2.739,1.096,4.712,0.986,7.013,0
								c2.301-0.986,4.602-0.767,5.588,0.219c0.986,0.986,4.493,1.205,6.684-0.329V57.428H179.376z"/>
						</g>
						<g>
							<path style="fill:#7A969C;" d="M181.238,188.671c0.474,0.048,1.052,0.184,1.754,0.465c0.494,0.198,0.963,0.355,1.413,0.476
								l-0.923-127.026L181.238,188.671z"/>
							<path style="fill:#7A969C;" d="M191.978,188.574c1.266-0.186,2.404-0.015,3.161,0.435L194.22,63.455L191.978,188.574z"/>
						</g>
						<g>
							<path style="fill:#8C8E90;" d="M182.537,61.784L182.537,61.784c-0.157,0-0.285-0.128-0.285-0.285v-3.376
								c0-0.156,0.128-0.285,0.285-0.285l0,0c0.156,0,0.284,0.128,0.284,0.285V61.5C182.821,61.656,182.693,61.784,182.537,61.784z"
								/>
							<path style="fill:#8C8E90;" d="M185.924,61.784L185.924,61.784c-0.157,0-0.285-0.128-0.285-0.285v-3.376
								c0-0.156,0.128-0.285,0.285-0.285l0,0c0.156,0,0.285,0.128,0.285,0.285V61.5C186.208,61.656,186.08,61.784,185.924,61.784z"
								/>
							<path style="fill:#8C8E90;" d="M189.311,61.784L189.311,61.784c-0.157,0-0.285-0.128-0.285-0.285v-3.376
								c0-0.156,0.128-0.285,0.285-0.285l0,0c0.156,0,0.284,0.128,0.284,0.285V61.5C189.595,61.656,189.467,61.784,189.311,61.784z"
								/>
							<path style="fill:#8C8E90;" d="M192.698,61.784L192.698,61.784c-0.157,0-0.285-0.128-0.285-0.285v-3.376
								c0-0.156,0.128-0.285,0.285-0.285l0,0c0.156,0,0.284,0.128,0.284,0.285V61.5C192.982,61.656,192.854,61.784,192.698,61.784z"
								/>
							<path style="fill:#8C8E90;" d="M196.085,61.784L196.085,61.784c-0.156,0-0.285-0.128-0.285-0.285v-3.376
								c0-0.156,0.128-0.285,0.285-0.285l0,0c0.156,0,0.285,0.128,0.285,0.285V61.5C196.37,61.656,196.242,61.784,196.085,61.784z"
								/>
							<path style="fill:#8C8E90;" d="M199.472,61.784L199.472,61.784c-0.157,0-0.284-0.128-0.284-0.285v-3.376
								c0-0.156,0.128-0.285,0.284-0.285l0,0c0.157,0,0.285,0.128,0.285,0.285V61.5C199.757,61.656,199.629,61.784,199.472,61.784z"
								/>
						</g>
					</g>
					<g>
						<g>
							<path style="fill:#DBD7D5;" d="M269.829,57.428v131.707c0,0-0.877-1.096-3.616,0c-2.739,1.096-4.712,0.986-7.013,0
								c-2.301-0.986-4.602-0.767-5.588,0.219c-0.986,0.986-4.493,1.205-6.684-0.329V57.428H269.829z"/>
						</g>
						<g>
							<path style="fill:#90B1B8;" d="M269.829,57.428v131.707c0,0-0.877-1.096-3.616,0c-2.739,1.096-4.712,0.986-7.013,0
								c-2.301-0.986-4.602-0.767-5.588,0.219c-0.986,0.986-4.493,1.205-6.684-0.329V57.428H269.829z"/>
						</g>
						<g>
							<path style="fill:#7A969C;" d="M267.967,188.671c-0.474,0.048-1.052,0.184-1.754,0.465c-0.494,0.198-0.963,0.355-1.413,0.476
								l0.923-127.026L267.967,188.671z"/>
							<path style="fill:#7A969C;" d="M257.227,188.574c-1.266-0.186-2.404-0.015-3.161,0.435l0.919-125.554L257.227,188.574z"/>
						</g>
						<g>
							<path style="fill:#8C8E90;" d="M266.668,61.784L266.668,61.784c0.157,0,0.285-0.128,0.285-0.285v-3.376
								c0-0.156-0.128-0.285-0.285-0.285l0,0c-0.156,0-0.284,0.128-0.284,0.285V61.5C266.384,61.656,266.512,61.784,266.668,61.784z
								"/>
							<path style="fill:#8C8E90;" d="M263.281,61.784L263.281,61.784c0.156,0,0.285-0.128,0.285-0.285v-3.376
								c0-0.156-0.128-0.285-0.285-0.285l0,0c-0.156,0-0.285,0.128-0.285,0.285V61.5C262.997,61.656,263.125,61.784,263.281,61.784z
								"/>
							<path style="fill:#8C8E90;" d="M259.894,61.784L259.894,61.784c0.156,0,0.284-0.128,0.284-0.285v-3.376
								c0-0.156-0.128-0.285-0.284-0.285l0,0c-0.157,0-0.285,0.128-0.285,0.285V61.5C259.61,61.656,259.738,61.784,259.894,61.784z"
								/>
							<path style="fill:#8C8E90;" d="M256.507,61.784L256.507,61.784c0.156,0,0.285-0.128,0.285-0.285v-3.376
								c0-0.156-0.128-0.285-0.285-0.285l0,0c-0.156,0-0.284,0.128-0.284,0.285V61.5C256.223,61.656,256.351,61.784,256.507,61.784z
								"/>
							<path style="fill:#8C8E90;" d="M253.12,61.784L253.12,61.784c0.156,0,0.285-0.128,0.285-0.285v-3.376
								c0-0.156-0.128-0.285-0.285-0.285l0,0c-0.157,0-0.285,0.128-0.285,0.285V61.5C252.835,61.656,252.964,61.784,253.12,61.784z"
								/>
							<path style="fill:#8C8E90;" d="M249.733,61.784L249.733,61.784c0.156,0,0.285-0.128,0.285-0.285v-3.376
								c0-0.156-0.128-0.285-0.285-0.285l0,0c-0.157,0-0.285,0.128-0.285,0.285V61.5C249.448,61.656,249.576,61.784,249.733,61.784z
								"/>
						</g>
					</g>
				</g>
			</g>
		</g>
	</g>
	<g>
		<ellipse style="fill:#597C75;" cx="168.873" cy="276.334" rx="144.821" ry="11.228"/>
		<ellipse style="fill:#395B55;" cx="169.355" cy="275.202" rx="115.207" ry="7.694"/>
	</g>
	<g>
		<g>
			<path style="fill:#C46637;" d="M72.464,226.451c-1.459-5.693,2.952-8.322,2.952-8.322s-7.842-0.039-12.019-0.059l0-0.012
				c-0.044,0-0.524,0.002-1.274,0.006c-0.75-0.003-1.23-0.006-1.274-0.006l0,0.012c-4.177,0.02-12.019,0.059-12.019,0.059
				s4.411,2.629,2.952,8.322c-1.459,5.693-7.684,7.844-6.469,22.014c1.215,14.17,9.691,19.863,9.691,19.863h0.037
				c0,0.233,2.98,0.422,6.657,0.422c0.143,0,0.283-0.001,0.424-0.001c0.141,0,0.281,0.001,0.424,0.001
				c3.677,0,6.657-0.189,6.657-0.422h0.037c0,0,8.477-5.693,9.691-19.863C80.148,234.295,73.923,232.144,72.464,226.451z"/>
			<ellipse style="fill:#A04C27;" cx="62.145" cy="218.059" rx="13.314" ry="0.844"/>
			<g>
				<polygon style="fill:#B29E7A;" points="55.157,259.109 54.052,259.109 54.283,258.211 54.82,258.148 				"/>
				<polygon style="fill:#AFA0AB;" points="58.708,262.954 58.568,262.612 58.875,262.569 58.963,262.727 				"/>
				<polygon style="fill:#C1A280;" points="51.915,263.147 51.706,262.64 52.161,262.576 52.292,262.811 				"/>
				<polygon style="fill:#ADC1BD;" points="59.531,257.229 59.238,256.518 59.877,256.428 60.06,256.758 				"/>
				<polygon style="fill:#EBE9A2;" points="55.588,266.32 55.295,265.609 55.934,265.52 56.117,265.849 				"/>
			</g>
			<g>
				<polygon style="fill:#B29E7A;" points="67.742,262.641 68.585,261.927 68.989,262.761 68.62,263.157 				"/>
				<polygon style="fill:#AFA0AB;" points="62.547,262.001 62.875,262.171 62.669,262.403 62.499,262.339 				"/>
				<polygon style="fill:#C1A280;" points="67.607,257.465 68.094,257.716 67.788,258.059 67.537,257.965 				"/>
				<polygon style="fill:#ADC1BD;" points="65.618,266.902 66.301,267.255 65.872,267.737 65.519,267.604 				"/>
				<polygon style="fill:#EBE9A2;" points="62.753,257.415 63.436,257.769 63.007,258.25 62.654,258.117 				"/>
			</g>
			<g>
				<polygon style="fill:#ADC1BD;" points="75.552,254.318 76.395,253.604 76.8,254.438 76.43,254.833 				"/>
				<polygon style="fill:#AFA0AB;" points="70.357,253.678 70.686,253.848 70.479,254.079 70.31,254.015 				"/>
				<polygon style="fill:#C1A280;" points="75.418,249.141 75.904,249.393 75.598,249.736 75.347,249.641 				"/>
				<polygon style="fill:#DBCA74;" points="73.429,258.578 74.112,258.932 73.682,259.413 73.33,259.28 				"/>
				<polygon style="fill:#EBE9A2;" points="70.564,249.092 71.247,249.445 70.817,249.927 70.464,249.794 				"/>
			</g>
			<g>
				<polygon style="fill:#ADC1BD;" points="52.805,251.333 53.648,250.619 54.052,251.453 53.683,251.849 				"/>
				<polygon style="fill:#AFA0AB;" points="47.61,250.693 47.938,250.863 47.732,251.094 47.562,251.03 				"/>
				<polygon style="fill:#C1A280;" points="52.671,246.156 53.157,246.408 52.851,246.751 52.6,246.656 				"/>
				<polygon style="fill:#DBCA74;" points="50.682,255.594 51.365,255.947 50.935,256.428 50.582,256.295 				"/>
				<polygon style="fill:#EBE9A2;" points="47.816,246.107 48.499,246.461 48.07,246.942 47.717,246.809 				"/>
			</g>
			<g>
				<polygon style="fill:#84B5BC;" points="53.355,236.981 54.458,236.925 54.274,237.833 53.74,237.923 				"/>
				<polygon style="fill:#AFA0AB;" points="49.612,233.322 49.77,233.656 49.466,233.715 49.37,233.561 				"/>
				<polygon style="fill:#C1A280;" points="56.387,232.783 56.621,233.278 56.17,233.365 56.028,233.138 				"/>
				<polygon style="fill:#DBCA74;" points="49.083,239.081 49.412,239.777 48.778,239.899 48.579,239.579 				"/>
				<polygon style="fill:#EBE9A2;" points="52.557,229.801 52.886,230.496 52.252,230.618 52.053,230.298 				"/>
			</g>
			<g>
				<polygon style="fill:#84B5BC;" points="66.556,231.72 65.735,232.459 65.306,231.638 65.663,231.231 				"/>
				<polygon style="fill:#AFA0AB;" points="71.768,232.202 71.435,232.042 71.634,231.805 71.806,231.863 				"/>
				<polygon style="fill:#C1A280;" points="66.848,236.89 66.354,236.653 66.649,236.301 66.903,236.388 				"/>
				<polygon style="fill:#DBCA74;" points="68.55,227.397 67.856,227.064 68.271,226.57 68.628,226.692 				"/>
				<polygon style="fill:#EBE9A2;" points="71.701,236.792 71.008,236.459 71.423,235.965 71.779,236.087 				"/>
			</g>
			<g>
				<polygon style="fill:#84B5BC;" points="62.056,226.448 62.826,225.656 63.309,226.447 62.979,226.876 				"/>
				<polygon style="fill:#AFA0AB;" points="56.823,226.312 57.167,226.449 56.983,226.7 56.808,226.652 				"/>
				<polygon style="fill:#C1A280;" points="61.422,221.308 61.931,221.512 61.659,221.883 61.4,221.813 				"/>
				<polygon style="fill:#DBCA74;" points="60.353,230.893 61.067,231.179 60.686,231.7 60.322,231.601 				"/>
				<polygon style="fill:#EBE9A2;" points="56.586,221.728 57.3,222.014 56.919,222.534 56.555,222.436 				"/>
			</g>
			<g>
				<polygon style="fill:#84B5BC;" points="63.254,248.579 64.358,248.522 64.174,249.43 63.64,249.521 				"/>
				<polygon style="fill:#AFA0AB;" points="59.512,244.92 59.67,245.254 59.365,245.313 59.269,245.159 				"/>
				<polygon style="fill:#C1A280;" points="66.287,244.381 66.521,244.876 66.07,244.963 65.927,244.736 				"/>
				<polygon style="fill:#DBCA74;" points="58.982,250.679 59.311,251.374 58.678,251.496 58.478,251.177 				"/>
				<polygon style="fill:#EBE9A2;" points="62.456,241.398 62.785,242.093 62.152,242.216 61.952,241.896 				"/>
			</g>
			<g>
				<polygon style="fill:#ADC1BD;" points="71.123,244.365 71.194,245.467 70.283,245.295 70.185,244.763 				"/>
				<polygon style="fill:#AFA0AB;" points="74.732,240.574 74.4,240.737 74.337,240.433 74.49,240.335 				"/>
				<polygon style="fill:#C1A280;" points="75.36,247.342 74.868,247.582 74.775,247.132 75.001,246.987 				"/>
				<polygon style="fill:#DBCA74;" points="68.966,240.121 68.276,240.458 68.145,239.827 68.462,239.623 				"/>
				<polygon style="fill:#EBE9A2;" points="78.292,243.473 77.601,243.81 77.471,243.179 77.787,242.975 				"/>
			</g>
		</g>
		<g>
			<g>
				<path style="fill:#78A067;" d="M66.497,161.301c-0.517-0.503-0.898-1.116-1.189-1.774c-0.069-0.195-0.133-0.39-0.195-0.582
					c-0.457-1.429-0.54-3.015-0.168-4.498c0.211-0.839,0.567-1.628,1.062-2.349c0.059-0.086,0.149-0.087,0.225-0.023
					c1.108,0.934,1.734,2.422,2.093,3.797c0.388,1.484,0.434,3.007,0.125,4.527c-0.177,0.598-0.431,1.175-0.768,1.702
					C67.244,161.906,66.844,161.639,66.497,161.301z"/>
				<path style="fill:#5B895D;" d="M64.469,166.701c-0.517-0.503-0.899-1.116-1.189-1.774c-0.069-0.195-0.133-0.39-0.195-0.582
					c-0.457-1.429-0.54-3.015-0.168-4.498c0.211-0.839,0.567-1.628,1.062-2.349c0.059-0.085,0.149-0.087,0.225-0.023
					c1.108,0.934,1.734,2.422,2.093,3.797c0.388,1.484,0.434,3.007,0.125,4.526c-0.177,0.598-0.431,1.175-0.768,1.702
					C65.215,167.306,64.816,167.039,64.469,166.701z"/>
				<path style="fill:#78A067;" d="M62.786,171.703c-0.607-0.39-1.103-0.915-1.518-1.502c-0.106-0.177-0.208-0.355-0.306-0.532
					c-0.733-1.31-1.129-2.847-1.059-4.374c0.039-0.865,0.231-1.708,0.573-2.513c0.041-0.095,0.128-0.115,0.216-0.067
					c1.271,0.694,2.181,2.029,2.807,3.304c0.675,1.377,1.023,2.861,1.023,4.411c-0.054,0.621-0.188,1.237-0.414,1.821
					C63.638,172.147,63.193,171.964,62.786,171.703z"/>
				<path style="fill:#5B895D;" d="M61.598,176.669c-0.666-0.276-1.247-0.705-1.761-1.209c-0.136-0.155-0.268-0.313-0.396-0.469
					c-0.953-1.159-1.615-2.602-1.818-4.117c-0.114-0.858-0.075-1.722,0.118-2.575c0.023-0.101,0.106-0.136,0.2-0.105
					c1.375,0.458,2.506,1.61,3.348,2.755c0.909,1.235,1.514,2.634,1.788,4.16c0.057,0.621,0.034,1.251-0.085,1.865
					C62.516,176.955,62.046,176.854,61.598,176.669z"/>
				<path style="fill:#78A067;" d="M60.725,183.036c-0.792-0.311-1.484-0.788-2.098-1.346c-0.163-0.172-0.321-0.346-0.475-0.518
					c-1.143-1.28-1.945-2.866-2.205-4.526c-0.147-0.939-0.112-1.884,0.105-2.813c0.026-0.11,0.123-0.147,0.236-0.112
					c1.632,0.52,2.985,1.794,3.996,3.057c1.091,1.363,1.826,2.9,2.171,4.572c0.076,0.68,0.057,1.368-0.075,2.038
					C61.814,183.361,61.257,183.245,60.725,183.036z"/>
				<path style="fill:#5B895D;" d="M60.228,188.395c-0.768-0.202-1.466-0.583-2.102-1.057c-0.171-0.149-0.339-0.302-0.502-0.453
					c-1.213-1.123-2.15-2.599-2.597-4.223c-0.253-0.919-0.338-1.868-0.254-2.828c0.01-0.114,0.095-0.164,0.203-0.144
					c1.568,0.295,2.975,1.384,4.064,2.508c1.176,1.213,2.045,2.649,2.572,4.274c0.154,0.669,0.223,1.361,0.185,2.048
					C61.272,188.57,60.743,188.531,60.228,188.395z"/>
				<path style="fill:#8AB676;" d="M59.679,193.819c-0.768-0.202-1.466-0.584-2.101-1.057c-0.172-0.149-0.339-0.302-0.502-0.453
					c-1.213-1.123-2.15-2.599-2.597-4.223c-0.253-0.919-0.339-1.868-0.254-2.828c0.01-0.114,0.095-0.164,0.203-0.144
					c1.568,0.295,2.975,1.384,4.064,2.508c1.176,1.213,2.045,2.649,2.572,4.274c0.154,0.669,0.223,1.361,0.185,2.048
					C60.723,193.994,60.195,193.955,59.679,193.819z"/>
				<path style="fill:#5B895D;" d="M59.99,199.506c-0.789-0.093-1.533-0.374-2.228-0.755c-0.191-0.124-0.377-0.251-0.56-0.378
					c-1.358-0.943-2.492-2.274-3.16-3.82c-0.378-0.875-0.595-1.803-0.646-2.765c-0.006-0.114,0.071-0.176,0.181-0.171
					c1.594,0.074,3.138,0.956,4.374,1.917c1.333,1.037,2.394,2.339,3.142,3.874c0.246,0.641,0.411,1.316,0.469,2.002
					C61.048,199.535,60.519,199.569,59.99,199.506z"/>
				<path style="fill:#8AB676;" d="M59.735,204.479c-0.789-0.093-1.533-0.374-2.228-0.755c-0.191-0.124-0.377-0.251-0.56-0.378
					c-1.357-0.943-2.491-2.274-3.16-3.82c-0.378-0.875-0.595-1.803-0.646-2.765c-0.006-0.114,0.071-0.176,0.181-0.171
					c1.594,0.074,3.138,0.956,4.374,1.917c1.333,1.037,2.394,2.338,3.142,3.874c0.246,0.641,0.411,1.316,0.469,2.002
					C60.793,204.507,60.265,204.542,59.735,204.479z"/>
				<path style="fill:#5B895D;" d="M60.526,211.39c-0.819-0.109-1.593-0.424-2.317-0.849c-0.199-0.138-0.393-0.28-0.584-0.421
					c-1.416-1.05-2.603-2.525-3.309-4.233c-0.4-0.966-0.633-1.99-0.693-3.05c-0.007-0.126,0.073-0.193,0.186-0.187
					c1.654,0.095,3.262,1.079,4.551,2.148c1.391,1.153,2.502,2.595,3.29,4.292c0.261,0.708,0.437,1.453,0.503,2.208
					C61.623,211.43,61.075,211.464,60.526,211.39z"/>
				<path style="fill:#446B47;" d="M73.139,154.06c-2.947,3.072-5.152,6.69-6.782,10.611c-1.684,4.05-2.774,8.332-3.556,12.64
					c-0.763,4.207-1.238,8.463-1.599,12.722c-0.467,5.507-0.453,11.051-0.015,16.559c0.327,4.116,0.886,8.217,1.682,12.271
					c0.212,0.019,0.424,0.035,0.635,0.056c-0.15-0.731-0.294-1.463-0.424-2.199c-0.478-2.701-0.858-5.419-1.132-8.148
					c-0.551-5.473-0.681-10.99-0.342-16.482c0.269-4.359,0.734-8.729,1.419-13.042c0.683-4.298,1.638-8.565,3.112-12.665
					c1.426-3.967,3.385-7.84,6.103-11.086c0.326-0.389,0.671-0.764,1.021-1.132C73.354,154.065,73.233,153.962,73.139,154.06z"/>
				<path style="fill:#8AB676;" d="M63.664,210.302c1.072-0.154,2.081-0.554,3.022-1.085c0.258-0.172,0.511-0.348,0.758-0.523
					c1.836-1.301,3.364-3.106,4.256-5.178c0.505-1.173,0.79-2.41,0.848-3.684c0.007-0.151-0.099-0.23-0.248-0.219
					c-2.167,0.16-4.258,1.387-5.928,2.707c-1.802,1.424-3.23,3.188-4.23,5.249c-0.328,0.858-0.544,1.758-0.616,2.668
					C62.225,210.38,62.945,210.405,63.664,210.302z"/>
				<path style="fill:#5B895D;" d="M63.278,203.899c1.083,0.017,2.143-0.218,3.156-0.594c0.282-0.129,0.559-0.262,0.831-0.396
					c2.018-0.994,3.812-2.536,5.02-4.441c0.684-1.078,1.161-2.255,1.42-3.504c0.031-0.148-0.062-0.243-0.211-0.256
					c-2.165-0.185-4.424,0.697-6.281,1.736c-2.004,1.121-3.693,2.637-5.007,4.514c-0.459,0.796-0.815,1.65-1.029,2.538
					C61.845,203.749,62.551,203.887,63.278,203.899z"/>
				<path style="fill:#8AB676;" d="M62.981,197.736c0.928,0.077,1.847-0.07,2.732-0.343c0.247-0.097,0.491-0.2,0.729-0.302
					c1.773-0.762,3.376-2.021,4.492-3.634c0.632-0.913,1.09-1.924,1.364-3.014c0.033-0.129-0.042-0.218-0.17-0.238
					c-1.85-0.288-3.824,0.362-5.46,1.173c-1.766,0.876-3.278,2.117-4.483,3.7c-0.427,0.676-0.768,1.41-0.989,2.182
					C61.758,197.522,62.358,197.685,62.981,197.736z"/>
				<path style="fill:#5B895D;" d="M63.264,193.164c0.928-0.047,1.819-0.315,2.66-0.704c0.232-0.13,0.46-0.264,0.684-0.397
					c1.659-0.993,3.088-2.457,3.99-4.208c0.511-0.991,0.838-2.057,0.973-3.176c0.016-0.132-0.07-0.211-0.198-0.214
					c-1.867-0.04-3.739,0.868-5.257,1.892c-1.638,1.105-2.979,2.54-3.973,4.273c-0.338,0.729-0.583,1.504-0.705,2.3
					C62.026,193.113,62.641,193.195,63.264,193.164z"/>
				<path style="fill:#8AB676;" d="M63.557,187.579c0.928-0.047,1.819-0.315,2.66-0.704c0.232-0.13,0.46-0.264,0.684-0.397
					c1.659-0.993,3.088-2.457,3.99-4.208c0.511-0.991,0.838-2.057,0.972-3.176c0.016-0.133-0.069-0.211-0.198-0.214
					c-1.866-0.04-3.739,0.868-5.256,1.891c-1.638,1.105-2.979,2.54-3.973,4.273c-0.338,0.729-0.583,1.504-0.706,2.3
					C62.32,187.529,62.934,187.611,63.557,187.579z"/>
				<path style="fill:#5B895D;" d="M64.343,181.861c0.928-0.047,1.819-0.315,2.661-0.704c0.232-0.13,0.46-0.264,0.684-0.397
					c1.659-0.993,3.088-2.457,3.99-4.208c0.511-0.991,0.838-2.057,0.973-3.176c0.016-0.133-0.07-0.211-0.198-0.214
					c-1.866-0.04-3.739,0.868-5.256,1.891c-1.638,1.105-2.979,2.54-3.973,4.273c-0.338,0.729-0.583,1.504-0.706,2.3
					C63.106,181.81,63.72,181.892,64.343,181.861z"/>
				<path style="fill:#8AB676;" d="M64.994,177.566c0.928-0.047,1.819-0.315,2.66-0.704c0.232-0.13,0.46-0.264,0.684-0.397
					c1.659-0.993,3.088-2.457,3.99-4.208c0.511-0.991,0.838-2.057,0.972-3.176c0.016-0.132-0.069-0.211-0.198-0.214
					c-1.867-0.04-3.739,0.868-5.257,1.891c-1.638,1.105-2.979,2.54-3.973,4.273c-0.338,0.729-0.583,1.504-0.705,2.3
					C63.757,177.516,64.371,177.598,64.994,177.566z"/>
				<path style="fill:#5B895D;" d="M65.956,172.845c0.928-0.047,1.819-0.315,2.66-0.704c0.232-0.13,0.46-0.264,0.684-0.397
					c1.659-0.993,3.088-2.457,3.99-4.208c0.511-0.991,0.838-2.057,0.973-3.176c0.016-0.133-0.07-0.211-0.198-0.214
					c-1.866-0.04-3.739,0.868-5.256,1.892c-1.638,1.105-2.979,2.54-3.973,4.273c-0.338,0.729-0.583,1.504-0.706,2.3
					C64.719,172.794,65.333,172.876,65.956,172.845z"/>
				<path style="fill:#8AB676;" d="M70.27,159.424c0.677-0.454,1.227-1.057,1.685-1.727c0.116-0.201,0.228-0.404,0.335-0.605
					c0.801-1.489,1.216-3.225,1.106-4.936c-0.063-0.969-0.297-1.91-0.7-2.803c-0.048-0.106-0.147-0.126-0.245-0.07
					c-1.422,0.814-2.422,2.336-3.103,3.784c-0.734,1.563-1.097,3.237-1.064,4.976c0.074,0.695,0.239,1.383,0.506,2.031
					C69.317,159.945,69.816,159.729,70.27,159.424z"/>
				<path style="fill:#5B895D;" d="M69.552,161.704c0.72-0.036,1.412-0.244,2.065-0.547c0.18-0.101,0.357-0.205,0.531-0.308
					c1.287-0.771,2.396-1.907,3.097-3.266c0.396-0.769,0.65-1.597,0.755-2.465c0.012-0.103-0.054-0.164-0.154-0.166
					c-1.449-0.031-2.902,0.674-4.079,1.468c-1.271,0.857-2.312,1.971-3.084,3.316c-0.262,0.566-0.453,1.167-0.548,1.785
					C68.591,161.664,69.068,161.728,69.552,161.704z"/>
				<path style="fill:#8AB676;" d="M67.641,167.533c0.928-0.046,1.819-0.315,2.66-0.704c0.232-0.13,0.46-0.264,0.684-0.397
					c1.659-0.993,3.088-2.457,3.99-4.208c0.511-0.991,0.838-2.057,0.972-3.176c0.016-0.133-0.069-0.211-0.198-0.214
					c-1.866-0.04-3.739,0.868-5.256,1.892c-1.638,1.105-2.979,2.54-3.973,4.273c-0.338,0.729-0.583,1.504-0.706,2.3
					C66.404,167.483,67.018,167.565,67.641,167.533z"/>
			</g>
			<g>
				<path style="fill:#78A067;" d="M81.627,178.118c-0.283-0.459-0.447-0.973-0.538-1.504c-0.014-0.154-0.025-0.307-0.035-0.458
					c-0.07-1.12,0.16-2.284,0.701-3.291c0.306-0.57,0.709-1.077,1.199-1.509c0.058-0.051,0.124-0.036,0.167,0.024
					c0.632,0.88,0.814,2.073,0.823,3.135c0.01,1.146-0.235,2.259-0.737,3.304c-0.237,0.401-0.527,0.773-0.868,1.093
					C82.058,178.693,81.817,178.426,81.627,178.118z"/>
				<path style="fill:#5B895D;" d="M79.169,181.662c-0.283-0.459-0.447-0.973-0.538-1.504c-0.014-0.154-0.025-0.307-0.035-0.458
					c-0.07-1.12,0.16-2.284,0.701-3.291c0.306-0.57,0.708-1.077,1.199-1.509c0.058-0.051,0.124-0.036,0.167,0.024
					c0.632,0.88,0.814,2.073,0.823,3.135c0.01,1.146-0.236,2.259-0.737,3.305c-0.237,0.401-0.527,0.773-0.868,1.093
					C79.599,182.237,79.358,181.97,79.169,181.662z"/>
				<path style="fill:#78A067;" d="M77.034,184.98c-0.368-0.394-0.632-0.865-0.826-1.367c-0.045-0.148-0.086-0.296-0.125-0.441
					c-0.292-1.083-0.298-2.27,0.032-3.365c0.187-0.62,0.48-1.196,0.875-1.717c0.047-0.062,0.114-0.06,0.169-0.009
					c0.795,0.736,1.21,1.87,1.43,2.909c0.238,1.122,0.219,2.261-0.065,3.385c-0.153,0.441-0.363,0.863-0.633,1.244
					C77.571,185.458,77.282,185.245,77.034,184.98z"/>
				<path style="fill:#5B895D;" d="M75.265,188.363c-0.432-0.322-0.775-0.739-1.055-1.199c-0.07-0.137-0.137-0.276-0.201-0.412
					c-0.479-1.015-0.695-2.182-0.565-3.317c0.074-0.643,0.26-1.262,0.557-1.845c0.035-0.069,0.102-0.079,0.164-0.039
					c0.913,0.583,1.522,1.626,1.923,2.609c0.433,1.062,0.616,2.186,0.536,3.343c-0.072,0.461-0.204,0.913-0.402,1.337
					C75.878,188.739,75.555,188.58,75.265,188.363z"/>
				<path style="fill:#78A067;" d="M73.468,192.82c-0.517-0.37-0.932-0.842-1.275-1.359c-0.087-0.154-0.169-0.309-0.249-0.462
					c-0.595-1.137-0.886-2.434-0.771-3.684c0.065-0.708,0.263-1.386,0.591-2.02c0.039-0.075,0.116-0.084,0.191-0.038
					c1.088,0.675,1.836,1.847,2.338,2.947c0.542,1.187,0.793,2.436,0.738,3.711c-0.069,0.507-0.209,1.003-0.427,1.464
					C74.198,193.255,73.815,193.068,73.468,192.82z"/>
				<path style="fill:#5B895D;" d="M72.127,196.614c-0.52-0.287-0.956-0.691-1.33-1.151c-0.097-0.14-0.19-0.281-0.281-0.42
					c-0.674-1.036-1.084-2.277-1.111-3.536c-0.015-0.712,0.096-1.417,0.333-2.097c0.028-0.081,0.099-0.102,0.174-0.067
					c1.083,0.501,1.903,1.547,2.488,2.561c0.631,1.094,0.998,2.294,1.083,3.568c-0.01,0.513-0.087,1.027-0.24,1.519
					C72.852,196.932,72.476,196.807,72.127,196.614z"/>
				<path style="fill:#8AB676;" d="M70.738,200.446c-0.52-0.287-0.956-0.691-1.33-1.151c-0.097-0.14-0.19-0.281-0.281-0.42
					c-0.674-1.036-1.084-2.277-1.111-3.536c-0.015-0.713,0.096-1.417,0.333-2.097c0.028-0.081,0.099-0.102,0.174-0.067
					c1.083,0.501,1.904,1.547,2.488,2.561c0.631,1.094,0.998,2.294,1.083,3.568c-0.01,0.513-0.087,1.027-0.24,1.519
					C71.463,200.764,71.087,200.639,70.738,200.446z"/>
				<path style="fill:#5B895D;" d="M69.923,204.626c-0.555-0.212-1.043-0.551-1.478-0.954c-0.116-0.125-0.228-0.251-0.337-0.377
					c-0.812-0.932-1.391-2.104-1.592-3.347c-0.114-0.703-0.102-1.416,0.037-2.122c0.016-0.084,0.084-0.115,0.163-0.091
					c1.142,0.345,2.1,1.267,2.82,2.19c0.777,0.996,1.308,2.133,1.569,3.383c0.061,0.51,0.057,1.029-0.026,1.537
					C70.685,204.84,70.295,204.768,69.923,204.626z"/>
				<path style="fill:#8AB676;" d="M68.829,208.185c-0.555-0.212-1.043-0.551-1.478-0.954c-0.115-0.125-0.227-0.251-0.337-0.377
					c-0.812-0.932-1.39-2.104-1.592-3.347c-0.114-0.703-0.102-1.416,0.037-2.123c0.016-0.084,0.084-0.115,0.163-0.091
					c1.142,0.345,2.1,1.267,2.82,2.19c0.777,0.996,1.308,2.133,1.569,3.383c0.061,0.51,0.057,1.029-0.026,1.537
					C69.591,208.399,69.202,208.327,68.829,208.185z"/>
				<path style="fill:#5B895D;" d="M68.139,213.34c-0.574-0.229-1.077-0.599-1.524-1.04c-0.119-0.137-0.234-0.275-0.346-0.412
					c-0.834-1.02-1.425-2.306-1.625-3.673c-0.113-0.774-0.095-1.559,0.055-2.338c0.018-0.092,0.088-0.127,0.169-0.101
					c1.181,0.371,2.168,1.379,2.907,2.389c0.798,1.09,1.339,2.339,1.601,3.713c0.06,0.561,0.051,1.133-0.039,1.693
					C68.927,213.57,68.524,213.494,68.139,213.34z"/>
				<path style="fill:#446B47;" d="M87.766,174.083c-2.698,1.688-4.958,3.908-6.857,6.453c-1.961,2.628-3.535,5.533-4.89,8.514
					c-1.323,2.91-2.445,5.909-3.486,8.931c-1.346,3.907-2.35,7.929-3.039,12.002c-0.49,2.895-0.823,5.819-0.996,8.752
					c0.002,0,0.003,0.001,0.005,0.001c-0.004,0-0.003,0-0.005-0.001l0,0c0.003,0,0.004,0.001,0.01,0.001
					c0.081,0.009,0.162,0.012,0.244,0.015c0.067,0.002,0.133,0.006,0.2,0.01c0.019-0.363,0.037-0.726,0.063-1.089
					c0.147-2.045,0.369-4.085,0.669-6.114c0.601-4.069,1.516-8.092,2.766-12.011c0.992-3.111,2.128-6.194,3.414-9.196
					c1.281-2.991,2.754-5.91,4.572-8.613c1.759-2.615,3.888-5.065,6.451-6.921c0.308-0.223,0.626-0.431,0.947-0.634
					C87.921,174.126,87.852,174.029,87.766,174.083z"/>
				<path style="fill:#8AB676;" d="M70.613,213.124c0.805,0.084,1.61-0.021,2.39-0.234c0.218-0.077,0.434-0.159,0.645-0.24
					c1.569-0.607,3.007-1.637,4.032-2.976c0.58-0.758,1.013-1.602,1.288-2.516c0.033-0.108-0.03-0.185-0.14-0.204
					c-1.601-0.281-3.341,0.227-4.792,0.878c-1.567,0.703-2.925,1.72-4.027,3.032c-0.395,0.562-0.716,1.175-0.934,1.822
					C69.556,212.918,70.073,213.068,70.613,213.124z"/>
				<path style="fill:#5B895D;" d="M71.504,208.412c0.782,0.21,1.593,0.234,2.397,0.147c0.228-0.042,0.453-0.088,0.675-0.135
					c1.645-0.352,3.227-1.141,4.452-2.301c0.693-0.656,1.254-1.422,1.67-2.281c0.049-0.102,0-0.187-0.106-0.224
					c-1.536-0.53-3.334-0.304-4.871,0.11c-1.658,0.447-3.16,1.237-4.455,2.357c-0.478,0.493-0.893,1.047-1.21,1.651
					C70.492,208.041,70.979,208.27,71.504,208.412z"/>
				<path style="fill:#8AB676;" d="M72.415,203.89c0.659,0.226,1.352,0.287,2.043,0.251c0.197-0.025,0.392-0.055,0.584-0.086
					c1.425-0.228,2.817-0.848,3.921-1.813c0.625-0.546,1.142-1.196,1.54-1.935c0.047-0.088,0.009-0.166-0.08-0.203
					c-1.288-0.547-2.838-0.437-4.173-0.148c-1.44,0.312-2.764,0.936-3.927,1.862c-0.433,0.412-0.815,0.882-1.116,1.401
					C71.568,203.511,71.973,203.739,72.415,203.89z"/>
				<path style="fill:#5B895D;" d="M73.456,200.626c0.682,0.136,1.376,0.104,2.058-0.024c0.192-0.051,0.382-0.107,0.568-0.163
					c1.384-0.417,2.688-1.217,3.662-2.321c0.551-0.625,0.984-1.339,1.286-2.125c0.036-0.093-0.012-0.166-0.104-0.191
					c-1.346-0.37-2.869-0.054-4.157,0.41c-1.39,0.502-2.624,1.297-3.662,2.371c-0.378,0.466-0.698,0.983-0.932,1.538
					C72.569,200.364,72.999,200.535,73.456,200.626z"/>
				<path style="fill:#8AB676;" d="M74.69,196.632c0.682,0.136,1.376,0.104,2.058-0.024c0.192-0.051,0.382-0.107,0.568-0.163
					c1.384-0.417,2.688-1.217,3.662-2.321c0.551-0.625,0.983-1.338,1.286-2.125c0.036-0.093-0.012-0.166-0.104-0.191
					c-1.346-0.37-2.869-0.055-4.157,0.41c-1.389,0.501-2.624,1.297-3.662,2.371c-0.378,0.466-0.698,0.983-0.932,1.538
					C73.802,196.369,74.233,196.54,74.69,196.632z"/>
				<path style="fill:#5B895D;" d="M76.306,192.629c0.681,0.136,1.376,0.105,2.058-0.024c0.192-0.051,0.382-0.107,0.568-0.163
					c1.384-0.417,2.688-1.217,3.662-2.321c0.551-0.625,0.983-1.338,1.286-2.125c0.036-0.093-0.012-0.166-0.104-0.191
					c-1.346-0.37-2.869-0.055-4.157,0.41c-1.389,0.502-2.624,1.297-3.662,2.371c-0.378,0.467-0.698,0.983-0.932,1.538
					C75.418,192.367,75.848,192.538,76.306,192.629z"/>
				<path style="fill:#8AB676;" d="M77.563,189.635c0.681,0.136,1.376,0.104,2.058-0.024c0.192-0.051,0.382-0.107,0.568-0.163
					c1.384-0.417,2.688-1.217,3.662-2.321c0.552-0.625,0.984-1.338,1.286-2.125c0.036-0.093-0.012-0.166-0.104-0.191
					c-1.346-0.37-2.869-0.055-4.157,0.41c-1.389,0.502-2.624,1.297-3.662,2.371c-0.378,0.466-0.698,0.983-0.932,1.538
					C76.675,189.372,77.106,189.544,77.563,189.635z"/>
				<path style="fill:#5B895D;" d="M79.124,186.388c0.681,0.136,1.376,0.104,2.057-0.024c0.192-0.052,0.382-0.107,0.568-0.163
					c1.384-0.417,2.688-1.217,3.662-2.321c0.551-0.625,0.983-1.338,1.286-2.125c0.036-0.093-0.012-0.166-0.104-0.191
					c-1.346-0.37-2.869-0.055-4.157,0.41c-1.39,0.501-2.624,1.297-3.662,2.371c-0.378,0.466-0.698,0.983-0.932,1.538
					C78.236,186.125,78.666,186.297,79.124,186.388z"/>
				<path style="fill:#8AB676;" d="M84.705,177.447c0.574-0.205,1.083-0.542,1.537-0.944c0.121-0.125,0.239-0.252,0.354-0.377
					c0.853-0.933,1.471-2.115,1.704-3.376c0.132-0.714,0.134-1.439,0.005-2.161c-0.015-0.085-0.084-0.118-0.165-0.095
					c-1.18,0.33-2.183,1.25-2.941,2.176c-0.818,0.999-1.387,2.146-1.681,3.413c-0.073,0.518-0.08,1.046-0.005,1.565
					C83.919,177.651,84.32,177.585,84.705,177.447z"/>
				<path style="fill:#5B895D;" d="M83.767,178.968c0.529,0.105,1.068,0.081,1.597-0.019c0.149-0.04,0.296-0.083,0.441-0.126
					c1.074-0.324,2.086-0.944,2.842-1.801c0.428-0.485,0.763-1.039,0.998-1.649c0.028-0.072-0.009-0.129-0.081-0.148
					c-1.044-0.287-2.227-0.042-3.226,0.318c-1.078,0.389-2.036,1.006-2.842,1.84c-0.294,0.362-0.542,0.763-0.723,1.194
					C83.078,178.764,83.412,178.897,83.767,178.968z"/>
				<path style="fill:#8AB676;" d="M81.316,182.845c0.682,0.136,1.376,0.105,2.058-0.024c0.192-0.051,0.382-0.107,0.568-0.163
					c1.384-0.417,2.688-1.217,3.662-2.321c0.551-0.625,0.984-1.338,1.286-2.125c0.036-0.093-0.012-0.166-0.104-0.191
					c-1.346-0.37-2.869-0.055-4.157,0.41c-1.389,0.501-2.624,1.297-3.662,2.371c-0.378,0.467-0.698,0.983-0.932,1.538
					C80.429,182.583,80.859,182.754,81.316,182.845z"/>
			</g>
			<g>
				<path style="fill:#78A067;" d="M40.38,169.024c0.378-0.614,0.598-1.302,0.719-2.011c0.019-0.206,0.034-0.41,0.046-0.612
					c0.094-1.498-0.214-3.055-0.937-4.402c-0.41-0.762-0.948-1.44-1.604-2.018c-0.078-0.068-0.166-0.048-0.224,0.033
					c-0.846,1.176-1.089,2.773-1.101,4.193c-0.013,1.533,0.315,3.022,0.986,4.42c0.318,0.537,0.705,1.034,1.161,1.462
					C39.804,169.793,40.126,169.436,40.38,169.024z"/>
				<path style="fill:#5B895D;" d="M43.668,173.764c0.378-0.614,0.598-1.302,0.719-2.011c0.019-0.206,0.034-0.41,0.046-0.612
					c0.094-1.498-0.214-3.055-0.937-4.402c-0.409-0.762-0.948-1.44-1.604-2.018c-0.078-0.069-0.166-0.048-0.224,0.033
					c-0.846,1.176-1.089,2.773-1.101,4.193c-0.013,1.533,0.315,3.022,0.986,4.42c0.317,0.537,0.705,1.034,1.161,1.462
					C43.092,174.533,43.414,174.177,43.668,173.764z"/>
				<path style="fill:#78A067;" d="M46.523,178.202c0.493-0.527,0.845-1.157,1.105-1.828c0.06-0.198,0.115-0.396,0.167-0.59
					c0.39-1.449,0.398-3.037-0.043-4.501c-0.25-0.829-0.642-1.6-1.17-2.297c-0.063-0.083-0.153-0.08-0.226-0.013
					c-1.063,0.984-1.618,2.501-1.913,3.89c-0.318,1.5-0.293,3.024,0.087,4.527c0.204,0.589,0.485,1.154,0.847,1.664
					C45.805,178.841,46.192,178.556,46.523,178.202z"/>
				<path style="fill:#5B895D;" d="M48.889,182.727c0.578-0.431,1.037-0.989,1.411-1.603c0.094-0.184,0.183-0.369,0.269-0.551
					c0.641-1.357,0.93-2.918,0.755-4.437c-0.099-0.86-0.348-1.688-0.744-2.468c-0.047-0.092-0.136-0.106-0.22-0.052
					c-1.221,0.781-2.036,2.174-2.573,3.49c-0.579,1.42-0.824,2.924-0.717,4.471c0.097,0.616,0.273,1.221,0.538,1.788
					C48.069,183.229,48.501,183.016,48.889,182.727z"/>
				<path style="fill:#78A067;" d="M51.292,188.688c0.691-0.495,1.247-1.127,1.705-1.818c0.116-0.206,0.226-0.414,0.333-0.618
					c0.795-1.521,1.185-3.255,1.032-4.928c-0.087-0.947-0.352-1.854-0.79-2.702c-0.052-0.1-0.156-0.113-0.256-0.051
					c-1.455,0.903-2.456,2.47-3.127,3.941c-0.725,1.588-1.061,3.259-0.987,4.964c0.093,0.677,0.279,1.341,0.571,1.957
					C50.316,189.269,50.828,189.02,51.292,188.688z"/>
				<path style="fill:#5B895D;" d="M53.085,193.762c0.695-0.384,1.279-0.924,1.779-1.539c0.13-0.187,0.255-0.375,0.376-0.562
					c0.901-1.385,1.45-3.046,1.485-4.73c0.02-0.953-0.129-1.895-0.445-2.804c-0.038-0.108-0.132-0.136-0.232-0.09
					c-1.448,0.67-2.546,2.07-3.327,3.425c-0.843,1.463-1.335,3.069-1.448,4.773c0.014,0.687,0.116,1.374,0.321,2.031
					C52.116,194.188,52.619,194.02,53.085,193.762z"/>
				<path style="fill:#8AB676;" d="M54.944,198.887c0.695-0.384,1.279-0.924,1.779-1.539c0.13-0.187,0.255-0.375,0.376-0.562
					c0.901-1.386,1.45-3.046,1.485-4.73c0.02-0.953-0.129-1.895-0.445-2.804c-0.037-0.108-0.133-0.136-0.232-0.09
					c-1.448,0.67-2.546,2.069-3.327,3.425c-0.843,1.463-1.335,3.069-1.448,4.773c0.014,0.687,0.116,1.374,0.321,2.031
					C53.974,199.313,54.477,199.145,54.944,198.887z"/>
				<path style="fill:#5B895D;" d="M56.034,204.478c0.742-0.283,1.395-0.737,1.976-1.277c0.154-0.167,0.304-0.336,0.45-0.504
					c1.086-1.247,1.86-2.814,2.13-4.477c0.153-0.941,0.136-1.894-0.05-2.839c-0.022-0.112-0.112-0.153-0.217-0.121
					c-1.528,0.462-2.809,1.695-3.772,2.928c-1.039,1.332-1.749,2.853-2.099,4.525c-0.082,0.682-0.076,1.377,0.035,2.056
					C55.015,204.764,55.536,204.668,56.034,204.478z"/>
				<path style="fill:#8AB676;" d="M57.496,209.238c0.742-0.284,1.395-0.737,1.976-1.277c0.154-0.167,0.304-0.336,0.45-0.504
					c1.086-1.247,1.86-2.814,2.13-4.477c0.153-0.941,0.136-1.894-0.05-2.839c-0.022-0.112-0.112-0.153-0.217-0.121
					c-1.528,0.462-2.809,1.695-3.772,2.929c-1.039,1.332-1.749,2.853-2.099,4.524c-0.082,0.682-0.076,1.377,0.035,2.056
					C56.477,209.524,56.998,209.428,57.496,209.238z"/>
				<path style="fill:#5B895D;" d="M58.42,216.132c0.767-0.306,1.441-0.801,2.039-1.39c0.159-0.183,0.313-0.368,0.463-0.551
					c1.116-1.364,1.906-3.085,2.173-4.913c0.151-1.035,0.127-2.085-0.074-3.127c-0.024-0.123-0.118-0.169-0.226-0.135
					c-1.58,0.496-2.899,1.844-3.888,3.195c-1.067,1.458-1.791,3.128-2.141,4.966c-0.08,0.75-0.068,1.515,0.052,2.265
					C57.366,216.439,57.905,216.338,58.42,216.132z"/>
				<path style="fill:#446B47;" d="M57.581,218.883c-0.245-2.424-0.568-4.841-0.974-7.242c-0.922-5.448-2.265-10.828-4.065-16.053
					c-1.392-4.041-2.893-8.052-4.662-11.944c-1.812-3.986-3.916-7.871-6.54-11.387c-2.54-3.403-5.562-6.372-9.171-8.63
					c-0.115-0.072-0.207,0.058-0.092,0.131c0.429,0.271,0.855,0.55,1.267,0.848c3.429,2.482,6.276,5.759,8.629,9.257
					c2.432,3.615,4.402,7.519,6.115,11.52c1.719,4.015,3.239,8.138,4.566,12.299c1.672,5.242,2.895,10.623,3.699,16.065
					c0.249,1.682,0.452,3.371,0.622,5.063C57.174,218.853,57.377,218.877,57.581,218.883z"/>
				<path style="fill:#8AB676;" d="M55.111,215.844c-1.077,0.113-2.153-0.028-3.196-0.313c-0.292-0.103-0.58-0.212-0.862-0.321
					c-2.098-0.812-4.021-2.189-5.393-3.98c-0.776-1.014-1.355-2.143-1.723-3.365c-0.044-0.145,0.04-0.247,0.187-0.273
					c2.141-0.375,4.468,0.304,6.41,1.175c2.095,0.94,3.911,2.301,5.386,4.055c0.528,0.752,0.957,1.572,1.249,2.437
					C56.525,215.568,55.834,215.768,55.111,215.844z"/>
				<path style="fill:#5B895D;" d="M53.92,209.541c-1.046,0.281-2.131,0.313-3.205,0.196c-0.305-0.056-0.606-0.118-0.902-0.181
					c-2.2-0.471-4.317-1.526-5.954-3.078c-0.927-0.878-1.677-1.902-2.233-3.051c-0.066-0.136,0-0.251,0.142-0.299
					c2.054-0.709,4.46-0.406,6.515,0.147c2.218,0.597,4.226,1.654,5.959,3.153c0.64,0.659,1.194,1.4,1.619,2.209
					C55.273,209.045,54.622,209.352,53.92,209.541z"/>
				<path style="fill:#8AB676;" d="M52.7,203.493c-0.881,0.302-1.808,0.384-2.733,0.335c-0.263-0.034-0.524-0.074-0.781-0.115
					c-1.905-0.306-3.768-1.134-5.244-2.425c-0.836-0.731-1.528-1.6-2.06-2.588c-0.063-0.117-0.012-0.222,0.107-0.272
					c1.723-0.731,3.796-0.585,5.581-0.198c1.927,0.417,3.696,1.251,5.252,2.491c0.58,0.551,1.09,1.18,1.493,1.874
					C53.834,202.986,53.292,203.291,52.7,203.493z"/>
				<path style="fill:#5B895D;" d="M51.308,199.129c-0.911,0.182-1.841,0.14-2.752-0.032c-0.257-0.069-0.511-0.143-0.76-0.218
					c-1.852-0.558-3.595-1.627-4.898-3.105c-0.738-0.836-1.315-1.79-1.72-2.842c-0.048-0.125,0.016-0.222,0.14-0.256
					c1.8-0.495,3.837-0.073,5.559,0.549c1.858,0.671,3.509,1.734,4.897,3.171c0.506,0.624,0.933,1.315,1.247,2.057
					C52.495,198.777,51.92,199.007,51.308,199.129z"/>
				<path style="fill:#8AB676;" d="M49.658,193.786c-0.911,0.182-1.841,0.14-2.752-0.032c-0.257-0.069-0.511-0.143-0.76-0.218
					c-1.852-0.557-3.595-1.627-4.898-3.105c-0.738-0.836-1.315-1.79-1.72-2.842c-0.048-0.125,0.016-0.222,0.14-0.256
					c1.8-0.495,3.837-0.073,5.559,0.548c1.858,0.671,3.509,1.734,4.898,3.171c0.506,0.624,0.933,1.315,1.246,2.057
					C50.845,193.434,50.27,193.663,49.658,193.786z"/>
				<path style="fill:#5B895D;" d="M47.497,188.433c-0.911,0.182-1.841,0.14-2.752-0.032c-0.257-0.069-0.511-0.143-0.76-0.218
					c-1.851-0.558-3.595-1.627-4.898-3.105c-0.738-0.836-1.315-1.79-1.72-2.842c-0.048-0.125,0.016-0.222,0.14-0.256
					c1.8-0.495,3.837-0.073,5.559,0.549c1.859,0.671,3.51,1.734,4.898,3.171c0.506,0.624,0.934,1.315,1.247,2.057
					C48.684,188.081,48.109,188.311,47.497,188.433z"/>
				<path style="fill:#8AB676;" d="M45.815,184.428c-0.911,0.182-1.841,0.14-2.752-0.032c-0.257-0.069-0.511-0.143-0.76-0.218
					c-1.852-0.557-3.595-1.627-4.898-3.105c-0.738-0.836-1.315-1.79-1.72-2.842c-0.048-0.125,0.016-0.222,0.14-0.256
					c1.8-0.495,3.837-0.073,5.559,0.549c1.859,0.671,3.51,1.734,4.898,3.171c0.506,0.624,0.933,1.315,1.246,2.057
					C47.003,184.077,46.427,184.306,45.815,184.428z"/>
				<path style="fill:#5B895D;" d="M43.728,180.085c-0.911,0.182-1.841,0.14-2.752-0.032c-0.257-0.069-0.511-0.143-0.76-0.218
					c-1.852-0.557-3.595-1.627-4.898-3.105c-0.738-0.836-1.315-1.79-1.72-2.842c-0.048-0.125,0.016-0.222,0.14-0.256
					c1.8-0.495,3.837-0.073,5.559,0.549c1.858,0.671,3.509,1.734,4.897,3.171c0.506,0.624,0.934,1.315,1.247,2.057
					C44.916,179.734,44.34,179.963,43.728,180.085z"/>
				<path style="fill:#8AB676;" d="M36.263,168.127c-0.768-0.275-1.448-0.724-2.056-1.262c-0.162-0.167-0.319-0.336-0.473-0.504
					c-1.141-1.248-1.968-2.829-2.279-4.516c-0.176-0.955-0.179-1.925-0.007-2.89c0.02-0.114,0.112-0.158,0.221-0.128
					c1.578,0.442,2.92,1.673,3.934,2.91c1.094,1.336,1.855,2.87,2.249,4.565c0.098,0.692,0.107,1.399,0.006,2.093
					C37.315,168.399,36.778,168.311,36.263,168.127z"/>
				<path style="fill:#5B895D;" d="M37.517,170.161c-0.707,0.141-1.429,0.108-2.136-0.025c-0.199-0.054-0.396-0.111-0.59-0.169
					c-1.437-0.433-2.79-1.263-3.801-2.41c-0.573-0.649-1.021-1.389-1.335-2.205c-0.037-0.097,0.012-0.172,0.108-0.198
					c1.397-0.384,2.978-0.057,4.315,0.426c1.442,0.521,2.724,1.346,3.801,2.461c0.393,0.484,0.724,1.021,0.968,1.597
					C38.439,169.889,37.992,170.067,37.517,170.161z"/>
				<path style="fill:#8AB676;" d="M40.795,175.347c-0.911,0.182-1.841,0.14-2.752-0.032c-0.257-0.069-0.511-0.143-0.76-0.218
					c-1.851-0.557-3.595-1.627-4.898-3.105c-0.738-0.836-1.315-1.79-1.72-2.842c-0.048-0.125,0.016-0.222,0.14-0.256
					c1.8-0.495,3.837-0.073,5.559,0.549c1.858,0.671,3.509,1.734,4.897,3.171c0.506,0.624,0.933,1.315,1.247,2.057
					C41.983,174.996,41.407,175.225,40.795,175.347z"/>
			</g>
		</g>
	</g>
	<g>
		<g>
			<path style="fill:#D8804E;" d="M78.008,238.74H65.494l2.359,29.638c0,0.507,4.547,0.918,10.155,0.918
				c5.609,0,10.155-0.411,10.155-0.918l2.359-29.638H78.008z"/>
			<path style="fill:#A04C27;" d="M90.522,238.74c0,0.487-5.603,0.881-12.514,0.881c-6.911,0-12.514-0.394-12.514-0.881
				c0-0.487,5.603-0.881,12.514-0.881C84.919,237.859,90.522,238.253,90.522,238.74z"/>
		</g>
		<g>
			<path style="fill:#8AB676;" d="M53.404,249.614c0.014-0.011,0.026-0.024,0.04-0.035c0.479-0.368,1.085-0.761,1.357-1.32
				c0.111-0.228,0.134-0.487-0.037-0.691c-0.14-0.167-0.342-0.229-0.554-0.192c-0.284,0.05-0.546,0.222-0.78,0.426
				c0-0.02,0-0.04,0.001-0.06c0.014-0.639,0.04-1.276,0.071-1.913c0.373-0.521,0.815-0.989,1.328-1.362
				c0.446-0.325,0.903-0.636,1.332-0.984c0.377-0.306,0.838-0.674,1.012-1.145c0.138-0.374-0.082-0.753-0.404-0.955
				c-0.315-0.198-0.689-0.136-1.009,0.015c-0.415,0.196-0.769,0.528-1.084,0.856c-0.37,0.386-0.702,0.808-1.017,1.239
				c0.059-0.681,0.127-1.361,0.212-2.039c0.276-0.514,0.6-1.005,0.998-1.462c0.562-0.646,1.22-1.2,1.905-1.71
				c0.3-0.223,0.601-0.451,0.918-0.651c0.266-0.167,0.538-0.324,0.793-0.509c0.471-0.341,0.848-0.753,0.856-1.364
				c0.005-0.383-0.218-0.673-0.601-0.729c-0.427-0.063-0.88,0.089-1.274,0.241c-0.408,0.158-0.801,0.352-1.175,0.578
				c-0.637,0.384-1.227,0.86-1.725,1.415c0.131-0.633,0.27-1.264,0.426-1.891c0.438-0.673,0.96-1.295,1.555-1.848
				c0.69-0.641,1.459-1.177,2.278-1.64c0.448-0.253,0.906-0.486,1.365-0.717c0.301-0.151,0.621-0.237,0.934-0.358
				c0.568-0.221,1.154-0.543,1.256-1.2c0.065-0.415-0.156-0.734-0.55-0.859c-0.451-0.143-0.969-0.071-1.425,0.009
				c-0.424,0.075-0.851,0.183-1.251,0.346c-0.905,0.369-1.796,0.828-2.593,1.407c0.29-0.706,0.604-1.401,0.951-2.079
				c0.644-0.684,1.373-1.289,2.203-1.78c0.501-0.296,1.024-0.554,1.562-0.775c0.367-0.151,0.726-0.288,1.118-0.354
				c0.815-0.137,1.638-0.224,2.449-0.391c0.402-0.083,0.806-0.18,1.189-0.33c0.291-0.114,0.6-0.256,0.807-0.499
				c0.358-0.422,0.238-1.132-0.238-1.409c-0.564-0.329-1.351-0.201-1.957-0.092c-0.755,0.136-1.495,0.362-2.216,0.621
				c-0.923,0.331-1.768,0.806-2.571,1.349c2.075-2.561,4.9-4.587,8.127-5.374c1.83-0.446,3.912-0.403,5.563,0.593
				c0.872,0.526,1.592,1.339,2.07,2.235c0.253,0.474,0.42,0.981,0.429,1.522c0.006,0.402-0.122,0.779-0.211,1.163
				c1.712-1.018,3.648-1.766,5.652-1.814c2.007-0.048,4.138,0.68,5.488,2.212c1.177,1.335,1.682,3.128,1.853,4.866
				c0.02,0.199,0.034,0.4,0.045,0.6c-0.047,1.003-0.198,1.999-0.437,2.975c-0.42-1.894-1.534-3.611-3.291-4.516
				c-0.811-0.418-1.688-0.757-2.586-0.928c-0.729-0.139-1.643-0.216-2.253,0.297c-0.237,0.2-0.457,0.531-0.425,0.854
				c0.032,0.322,0.308,0.54,0.577,0.677c0.692,0.355,1.486,0.423,2.229,0.614c0.409,0.105,0.813,0.345,1.182,0.583
				c0.45,0.29,0.86,0.638,1.222,1.033c0.703,0.767,1.202,1.706,1.488,2.704c0.255,0.893,0.335,1.823,0.271,2.745
				c-0.445,0.816-0.959,1.595-1.521,2.339c0.019-0.98-0.221-1.996-0.531-2.847c-0.568-1.56-1.541-3.14-2.973-4.042
				c-0.647-0.407-1.399-0.635-2.167-0.556c-0.309,0.032-0.687,0.111-0.833,0.421c-0.13,0.276,0.01,0.591,0.16,0.828
				c0.443,0.696,1.146,1.184,1.688,1.794c0.734,0.828,1.302,1.81,1.642,2.863c0.527,1.632,0.466,3.383-0.205,4.919
				c-0.268,0.224-0.541,0.441-0.819,0.651c-0.804,0.607-1.656,1.138-2.542,1.607c0.335-0.718,0.501-1.512,0.549-2.305
				c0.051-0.843-0.001-1.71-0.227-2.525c-0.163-0.588-0.358-1.171-0.621-1.723c-0.228-0.479-0.544-1.048-1.055-1.27
				c-0.456-0.198-1.03,0.009-1.228,0.472c-0.241,0.563-0.053,1.284,0.088,1.848c0.164,0.655,0.409,1.292,0.546,1.954
				c0.075,0.365,0.044,0.76,0.014,1.128c-0.037,0.465-0.123,0.925-0.252,1.373c-0.28,0.968-0.778,1.84-1.433,2.575
				c-0.928,0.308-1.874,0.563-2.826,0.782c0.576-1.097,0.842-2.374,0.916-3.588c0.027-0.452-0.01-0.904-0.099-1.348
				c-0.079-0.393-0.211-0.908-0.577-1.136c-0.383-0.239-0.873,0.008-1.103,0.349c-0.306,0.454-0.34,1.091-0.376,1.62
				c-0.04,0.589-0.021,1.185-0.087,1.773c-0.037,0.322-0.167,0.632-0.293,0.928c-0.156,0.364-0.343,0.716-0.556,1.05
				c-0.203,0.318-0.43,0.616-0.677,0.897c-1.012,0.154-2.029,0.261-3.047,0.359c0.092-0.152,0.183-0.304,0.269-0.46
				c0.32-0.577,0.559-1.183,0.72-1.823c0.099-0.395,0.18-0.798,0.212-1.204c0.025-0.325,0.045-0.774-0.205-1.027
				c-0.251-0.253-0.659-0.146-0.893,0.073c-0.311,0.291-0.45,0.755-0.558,1.154c-0.122,0.449-0.194,0.909-0.303,1.361
				c-0.126,0.52-0.404,1.008-0.702,1.449c-0.159,0.236-0.339,0.457-0.53,0.666c-0.796,0.077-1.591,0.162-2.384,0.268
				c0.485-0.713,0.91-1.606,0.707-2.478c-0.022-0.093-0.138-0.164-0.23-0.131c-1.107,0.393-1.597,1.63-2.282,2.489
				c-0.139,0.175-0.288,0.338-0.441,0.495c-2.332,0.485-4.85,1.335-6.494,3.11c-0.009-0.066-0.016-0.131-0.021-0.188
				c-0.057-0.703,0.016-1.418,0.076-2.118C53.381,250.297,53.395,249.956,53.404,249.614z"/>
		</g>
		<g>
			<path style="fill:#5B895D;" d="M113.657,247.574c-0.018-0.014-0.033-0.031-0.052-0.046c-0.627-0.481-1.421-0.997-1.778-1.729
				c-0.145-0.298-0.175-0.638,0.049-0.905c0.183-0.219,0.448-0.3,0.726-0.251c0.373,0.065,0.715,0.29,1.022,0.558
				c-0.001-0.026,0-0.052-0.001-0.078c-0.019-0.837-0.052-1.672-0.093-2.506c-0.489-0.683-1.067-1.295-1.74-1.784
				c-0.585-0.425-1.182-0.833-1.745-1.288c-0.494-0.4-1.098-0.882-1.326-1.5c-0.18-0.49,0.108-0.986,0.529-1.251
				c0.412-0.26,0.903-0.178,1.321,0.019c0.544,0.257,1.008,0.691,1.42,1.121c0.485,0.505,0.919,1.058,1.332,1.623
				c-0.078-0.891-0.166-1.782-0.278-2.671c-0.361-0.673-0.786-1.317-1.307-1.915c-0.736-0.846-1.597-1.572-2.495-2.239
				c-0.393-0.293-0.788-0.591-1.203-0.853c-0.348-0.219-0.705-0.425-1.039-0.666c-0.617-0.446-1.11-0.986-1.121-1.787
				c-0.007-0.502,0.285-0.881,0.787-0.955c0.56-0.082,1.153,0.116,1.668,0.316c0.534,0.207,1.049,0.461,1.54,0.757
				c0.834,0.503,1.607,1.126,2.259,1.854c-0.172-0.829-0.354-1.656-0.559-2.477c-0.574-0.882-1.258-1.696-2.037-2.421
				c-0.904-0.84-1.91-1.542-2.984-2.148c-0.586-0.331-1.187-0.637-1.789-0.939c-0.394-0.197-0.814-0.31-1.223-0.469
				c-0.744-0.289-1.512-0.711-1.646-1.572c-0.085-0.543,0.204-0.962,0.721-1.125c0.591-0.187,1.27-0.093,1.866,0.012
				c0.556,0.098,1.115,0.24,1.639,0.453c1.185,0.483,2.352,1.084,3.396,1.843c-0.38-0.924-0.791-1.835-1.246-2.722
				c-0.843-0.896-1.798-1.688-2.886-2.331c-0.656-0.388-1.341-0.726-2.046-1.015c-0.481-0.198-0.951-0.377-1.464-0.463
				c-1.068-0.179-2.146-0.293-3.208-0.512c-0.527-0.109-1.056-0.236-1.558-0.433c-0.382-0.149-0.786-0.335-1.057-0.654
				c-0.469-0.553-0.311-1.482,0.312-1.846c0.738-0.431,1.769-0.263,2.563-0.12c0.989,0.178,1.958,0.474,2.903,0.813
				c1.209,0.434,2.315,1.056,3.368,1.767c-2.718-3.354-6.418-6.008-10.646-7.04c-2.397-0.585-5.124-0.527-7.286,0.777
				c-1.142,0.689-2.085,1.754-2.712,2.927c-0.332,0.621-0.55,1.285-0.561,1.994c-0.008,0.526,0.16,1.02,0.276,1.523
				c-2.242-1.334-4.778-2.313-7.403-2.376c-2.629-0.063-5.42,0.891-7.188,2.897c-1.541,1.748-2.204,4.098-2.427,6.374
				c-0.026,0.261-0.044,0.523-0.059,0.786c0.061,1.314,0.259,2.618,0.572,3.896c0.55-2.481,2.01-4.731,4.311-5.915
				c1.063-0.547,2.211-0.991,3.387-1.216c0.955-0.183,2.152-0.283,2.951,0.389c0.311,0.261,0.599,0.695,0.557,1.118
				c-0.042,0.421-0.404,0.707-0.755,0.887c-0.907,0.465-1.946,0.554-2.92,0.804c-0.536,0.138-1.064,0.452-1.548,0.764
				c-0.589,0.38-1.127,0.836-1.601,1.353c-0.921,1.005-1.575,2.234-1.949,3.541c-0.335,1.169-0.438,2.388-0.356,3.595
				c0.583,1.07,1.256,2.09,1.992,3.064c-0.025-1.284,0.289-2.615,0.695-3.729c0.744-2.043,2.018-4.114,3.895-5.294
				c0.848-0.533,1.832-0.832,2.838-0.728c0.404,0.042,0.9,0.146,1.091,0.551c0.171,0.362-0.013,0.775-0.21,1.085
				c-0.58,0.912-1.501,1.55-2.211,2.351c-0.962,1.084-1.705,2.37-2.151,3.751c-0.69,2.137-0.611,4.432,0.269,6.444
				c0.351,0.293,0.709,0.578,1.072,0.852c1.053,0.795,2.169,1.491,3.33,2.105c-0.439-0.941-0.656-1.98-0.719-3.02
				c-0.067-1.104,0.001-2.24,0.297-3.308c0.214-0.77,0.469-1.534,0.813-2.257c0.299-0.627,0.712-1.373,1.382-1.664
				c0.597-0.259,1.349,0.012,1.609,0.618c0.316,0.737,0.069,1.682-0.116,2.421c-0.215,0.858-0.536,1.693-0.715,2.559
				c-0.098,0.478-0.058,0.995-0.019,1.478c0.049,0.609,0.161,1.212,0.33,1.798c0.366,1.268,1.019,2.411,1.877,3.373
				c1.216,0.403,2.455,0.737,3.701,1.024c-0.755-1.437-1.103-3.11-1.2-4.7c-0.036-0.592,0.014-1.185,0.13-1.766
				c0.103-0.515,0.277-1.19,0.756-1.488c0.502-0.313,1.143,0.011,1.444,0.458c0.401,0.595,0.446,1.43,0.493,2.122
				c0.053,0.772,0.027,1.553,0.114,2.322c0.048,0.421,0.219,0.828,0.384,1.215c0.204,0.477,0.449,0.938,0.728,1.375
				c0.266,0.416,0.564,0.807,0.887,1.174c1.325,0.201,2.658,0.342,3.992,0.471c-0.121-0.199-0.24-0.399-0.353-0.602
				c-0.419-0.756-0.732-1.549-0.943-2.388c-0.13-0.517-0.235-1.045-0.277-1.577c-0.033-0.426-0.058-1.014,0.269-1.345
				c0.328-0.331,0.863-0.192,1.169,0.095c0.408,0.382,0.59,0.989,0.731,1.511c0.16,0.588,0.254,1.191,0.397,1.783
				c0.165,0.681,0.53,1.321,0.919,1.898c0.209,0.309,0.444,0.598,0.694,0.872c1.043,0.1,2.085,0.212,3.123,0.351
				c-0.636-0.934-1.192-2.103-0.926-3.246c0.028-0.122,0.18-0.214,0.301-0.171c1.45,0.515,2.091,2.135,2.989,3.261
				c0.182,0.229,0.377,0.442,0.577,0.648c3.055,0.635,6.353,1.749,8.506,4.073c0.011-0.087,0.021-0.171,0.027-0.246
				c0.075-0.921-0.02-1.857-0.1-2.775C113.687,248.469,113.669,248.022,113.657,247.574z"/>
		</g>
		<g>
			<path style="fill:#A6D17A;" d="M64.858,230.178c0.012-0.013,0.021-0.028,0.034-0.041c0.415-0.438,0.952-0.922,1.134-1.516
				c0.074-0.242,0.056-0.502-0.145-0.676c-0.164-0.143-0.374-0.173-0.578-0.103c-0.273,0.094-0.505,0.304-0.704,0.543
				c-0.003-0.02-0.006-0.039-0.009-0.059c-0.086-0.633-0.16-1.267-0.229-1.9c0.287-0.574,0.65-1.104,1.099-1.553
				c0.39-0.391,0.792-0.769,1.162-1.18c0.325-0.361,0.723-0.796,0.821-1.29c0.078-0.391-0.199-0.73-0.548-0.88
				c-0.342-0.147-0.702-0.026-0.994,0.172c-0.379,0.258-0.677,0.642-0.937,1.015c-0.305,0.439-0.567,0.908-0.81,1.383
				c-0.048-0.681-0.088-1.363-0.11-2.047c0.192-0.551,0.435-1.087,0.757-1.6c0.454-0.726,1.017-1.376,1.614-1.987
				c0.262-0.268,0.523-0.54,0.805-0.787c0.236-0.207,0.481-0.405,0.703-0.627c0.412-0.41,0.719-0.876,0.632-1.481
				c-0.055-0.38-0.32-0.63-0.708-0.626c-0.432,0.005-0.856,0.225-1.22,0.437c-0.378,0.22-0.736,0.473-1.071,0.755
				c-0.569,0.479-1.078,1.041-1.482,1.667c0.031-0.645,0.069-1.291,0.126-1.934c0.327-0.733,0.746-1.429,1.247-2.069
				c0.581-0.741,1.257-1.391,1.993-1.976c0.403-0.32,0.819-0.622,1.237-0.921c0.273-0.196,0.576-0.331,0.866-0.5
				c0.527-0.307,1.055-0.717,1.053-1.382c-0.001-0.42-0.269-0.701-0.678-0.762c-0.468-0.07-0.968,0.081-1.406,0.232
				c-0.407,0.14-0.812,0.314-1.182,0.537c-0.836,0.506-1.644,1.098-2.341,1.795c0.176-0.742,0.377-1.478,0.614-2.202
				c0.529-0.776,1.154-1.488,1.898-2.103c0.448-0.37,0.925-0.707,1.422-1.01c0.339-0.206,0.672-0.398,1.048-0.524
				c0.784-0.263,1.583-0.477,2.358-0.769c0.384-0.145,0.768-0.304,1.123-0.512c0.27-0.158,0.553-0.346,0.719-0.619
				c0.287-0.473,0.058-1.155-0.456-1.355c-0.608-0.237-1.366,0.013-1.947,0.215c-0.724,0.253-1.42,0.591-2.092,0.96
				c-0.86,0.471-1.62,1.073-2.328,1.735c1.649-2.854,4.122-5.297,7.186-6.579c1.738-0.727,3.8-1.01,5.587-0.285
				c0.944,0.383,1.782,1.074,2.394,1.883c0.324,0.428,0.569,0.903,0.661,1.436c0.069,0.396,0.001,0.788-0.026,1.181
				c1.531-1.274,3.326-2.315,5.299-2.676c1.975-0.362,4.193,0.024,5.766,1.326c1.371,1.134,2.151,2.827,2.591,4.516
				c0.05,0.194,0.096,0.389,0.138,0.586c0.111,0.998,0.117,2.005,0.034,3.006c-0.711-1.805-2.08-3.327-3.957-3.946
				c-0.867-0.286-1.786-0.483-2.699-0.512c-0.742-0.024-1.656,0.044-2.178,0.646c-0.203,0.234-0.368,0.596-0.286,0.91
				c0.082,0.313,0.389,0.485,0.675,0.579c0.739,0.242,1.534,0.185,2.298,0.258c0.42,0.04,0.857,0.214,1.258,0.391
				c0.49,0.217,0.949,0.496,1.369,0.829c0.814,0.647,1.454,1.496,1.892,2.438c0.392,0.842,0.616,1.748,0.698,2.669
				c-0.312,0.876-0.697,1.726-1.136,2.548c-0.134-0.971-0.531-1.937-0.97-2.729c-0.805-1.451-2.013-2.861-3.569-3.527
				c-0.703-0.301-1.481-0.409-2.227-0.21c-0.3,0.08-0.661,0.217-0.757,0.546c-0.086,0.293,0.102,0.583,0.288,0.793
				c0.546,0.619,1.317,0.99,1.948,1.508c0.855,0.703,1.569,1.584,2.07,2.571c0.775,1.529,0.99,3.269,0.567,4.891
				c-0.23,0.263-0.465,0.52-0.707,0.771c-0.699,0.725-1.458,1.384-2.26,1.985c0.219-0.762,0.258-1.571,0.182-2.363
				c-0.082-0.84-0.268-1.689-0.619-2.459c-0.253-0.555-0.537-1.101-0.883-1.604c-0.3-0.437-0.701-0.95-1.241-1.089
				c-0.481-0.124-1.016,0.17-1.139,0.658c-0.15,0.593,0.149,1.277,0.376,1.812c0.264,0.621,0.606,1.212,0.844,1.844
				c0.131,0.348,0.162,0.743,0.191,1.112c0.036,0.465,0.024,0.933-0.034,1.396c-0.125,1-0.48,1.939-1.013,2.767
				c-0.868,0.449-1.763,0.849-2.668,1.214c0.398-1.173,0.46-2.477,0.343-3.687c-0.043-0.45-0.152-0.892-0.309-1.316
				c-0.139-0.376-0.351-0.864-0.747-1.032c-0.416-0.176-0.861,0.145-1.035,0.517c-0.232,0.496-0.166,1.131-0.118,1.659
				c0.052,0.588,0.165,1.174,0.191,1.764c0.014,0.323-0.066,0.651-0.144,0.962c-0.097,0.384-0.227,0.761-0.385,1.124
				c-0.15,0.346-0.329,0.676-0.528,0.991c-0.975,0.31-1.963,0.576-2.954,0.832c0.067-0.164,0.133-0.329,0.194-0.496
				c0.226-0.62,0.367-1.256,0.426-1.913c0.036-0.405,0.053-0.816,0.021-1.222c-0.026-0.325-0.077-0.771-0.364-0.982
				c-0.287-0.211-0.673-0.042-0.87,0.212c-0.262,0.336-0.326,0.816-0.371,1.227c-0.05,0.463-0.049,0.928-0.087,1.392
				c-0.043,0.533-0.242,1.059-0.466,1.541c-0.12,0.258-0.263,0.504-0.419,0.74c-0.774,0.2-1.546,0.409-2.313,0.637
				c0.368-0.78,0.647-1.728,0.31-2.558c-0.036-0.089-0.161-0.14-0.248-0.093c-1.032,0.562-1.322,1.859-1.864,2.815
				c-0.11,0.194-0.231,0.378-0.358,0.558c-2.228,0.844-4.581,2.078-5.927,4.087c-0.019-0.064-0.036-0.126-0.05-0.182
				c-0.166-0.686-0.207-1.403-0.256-2.104C64.943,230.856,64.903,230.516,64.858,230.178z"/>
		</g>
		<g>
			<g>
				<polygon style="fill:#B29E7A;" points="71.118,259.919 70.014,259.919 70.244,259.021 70.782,258.958 				"/>
				<polygon style="fill:#AFA0AB;" points="74.67,263.764 74.529,263.422 74.836,263.379 74.924,263.537 				"/>
				<polygon style="fill:#C1A280;" points="67.876,263.957 67.668,263.45 68.123,263.386 68.253,263.621 				"/>
				<polygon style="fill:#ADC1BD;" points="75.492,258.039 75.199,257.328 75.838,257.238 76.021,257.568 				"/>
				<polygon style="fill:#EBE9A2;" points="71.549,267.131 71.256,266.419 71.895,266.33 72.078,266.659 				"/>
			</g>
			<g>
				<polygon style="fill:#B29E7A;" points="83.703,263.451 84.546,262.737 84.951,263.571 84.581,263.967 				"/>
				<polygon style="fill:#AFA0AB;" points="78.508,262.811 78.837,262.981 78.63,263.213 78.461,263.149 				"/>
				<polygon style="fill:#C1A280;" points="83.569,258.275 84.055,258.526 83.749,258.869 83.498,258.775 				"/>
				<polygon style="fill:#ADC1BD;" points="81.58,267.712 82.263,268.065 81.833,268.547 81.48,268.414 				"/>
				<polygon style="fill:#EBE9A2;" points="78.714,258.226 79.397,258.579 78.968,259.06 78.615,258.927 				"/>
			</g>
			<g>
				<polygon style="fill:#ADC1BD;" points="86.1,261.235 86.944,260.521 87.348,261.355 86.978,261.751 				"/>
				<polygon style="fill:#AFA0AB;" points="86.319,254.488 86.647,254.658 86.44,254.889 86.271,254.825 				"/>
				<polygon style="fill:#C1A280;" points="84.119,248.781 84.605,249.033 84.299,249.375 84.048,249.281 				"/>
				<polygon style="fill:#DBCA74;" points="86.134,265.912 86.817,266.266 86.387,266.747 86.035,266.614 				"/>
				<polygon style="fill:#EBE9A2;" points="86.525,249.902 87.208,250.255 86.778,250.737 86.426,250.604 				"/>
			</g>
			<g>
				<polygon style="fill:#ADC1BD;" points="68.766,252.143 69.609,251.429 70.014,252.263 69.644,252.659 				"/>
				<polygon style="fill:#C1A280;" points="68.632,246.966 69.118,247.218 68.812,247.561 68.561,247.466 				"/>
				<polygon style="fill:#DBCA74;" points="68.269,255.247 68.952,255.601 68.523,256.082 68.17,255.949 				"/>
			</g>
			<g>
				<polygon style="fill:#84B5BC;" points="79.216,249.389 80.319,249.332 80.135,250.24 79.601,250.331 				"/>
				<polygon style="fill:#AFA0AB;" points="75.473,245.73 75.631,246.064 75.326,246.123 75.23,245.969 				"/>
				<polygon style="fill:#C1A280;" points="82.248,245.191 82.482,245.686 82.031,245.773 81.888,245.546 				"/>
				<polygon style="fill:#DBCA74;" points="74.944,251.489 75.272,252.184 74.639,252.306 74.439,251.987 				"/>
				<polygon style="fill:#EBE9A2;" points="78.418,242.208 78.746,242.903 78.113,243.026 77.913,242.706 				"/>
			</g>
			<g>
				<polygon style="fill:#ADC1BD;" points="87.084,245.175 87.155,246.277 86.244,246.105 86.147,245.573 				"/>
				<polygon style="fill:#AFA0AB;" points="89.306,246.772 88.973,246.935 88.911,246.631 89.063,246.533 				"/>
				<polygon style="fill:#C1A280;" points="88.66,253.001 88.168,253.241 88.075,252.791 88.301,252.646 				"/>
				<polygon style="fill:#DBCA74;" points="84.928,240.931 84.237,241.268 84.106,240.637 84.423,240.433 				"/>
				<polygon style="fill:#EBE9A2;" points="89.519,240.931 88.828,241.268 88.697,240.637 89.014,240.433 				"/>
			</g>
		</g>
	</g>
	<g>
		<g>
			<g>
				<g>
					<g>
						<path style="fill:#825138;" d="M157.555,269.767l-2.053-0.671c-0.492-0.161-0.769-0.681-0.629-1.179l20.274-78.915
							c0.149-0.527,0.707-0.824,1.227-0.654l5.831,1.904c0.506,0.165,0.783,0.71,0.617,1.216l-24.051,77.682
							C158.606,269.656,158.062,269.933,157.555,269.767z"/>
					</g>
				</g>
			</g>
		</g>
		<g>
			<g>
				<g>
					<path style="fill:#603F2D;" d="M181.711,270.349c-5.79-0.162-9.614-1.173-11.88-2.05c-0.568-0.219-0.934-0.772-0.923-1.381
						c0.03-1.579,0.171-3.62,0.262-4.47c0.032-0.296,0.187-0.561,0.407-0.795c0.722-0.766,1.938-0.423,2.396,0.525
						c0.131,0.272,0.35,0.481,0.704,0.534c1.238,0.185,2.584,0.249,2.633-0.177c0.186-1.645,1.351-2.208,1.721-2.347
						c0.075-0.028,0.152-0.048,0.231-0.06c0.464-0.068,2.199-0.147,3.627,2.148c0.687,1.105,3.308,1.312,5.938,1.674
						c2.191,0.301,6.02-0.498,7.117,2.855c0.233,0.711-0.086,1.497-0.766,1.808C191.214,269.514,187.659,270.515,181.711,270.349z"
						/>
					<path style="opacity:0.6;fill:#603F2D;" d="M175.797,264.559c1.871-0.335,4.137-0.654,5.93-1.61
						c-0.378-0.179-0.667-0.397-0.838-0.671c-1.428-2.295-3.164-2.216-3.627-2.148c-0.08,0.012-0.156,0.032-0.231,0.06
						c-0.37,0.139-1.535,0.702-1.721,2.347c-0.049,0.426-1.395,0.362-2.633,0.177c-0.354-0.053-0.573-0.263-0.704-0.534
						c-0.458-0.948-1.674-1.29-2.396-0.525c-0.22,0.233-0.375,0.499-0.407,0.795c-0.026,0.243-0.056,0.584-0.087,0.983
						c-0.059,0.772,0.488,1.471,1.254,1.579C172.135,265.264,174.289,264.829,175.797,264.559z"/>
					<path style="fill:#352710;" d="M181.711,270.349c7.181,0.2,10.874-1.301,12.492-2.271c0.039,0.389,0.056,0.81,0.04,1.279
						c-0.026,0.769-5.989,3.314-14.929,2.609c-8.941-0.704-10.116-2.236-10.329-3.141c-0.043-0.184-0.067-0.507-0.078-0.91
						C170.985,268.85,175.044,270.163,181.711,270.349z"/>
				</g>
				<path style="fill:#4C7590;" d="M169.639,265.678c2.892,0.054,5.739,0.165,8.633-0.235c0.891-0.123,0.312-2.673,1.285-2.853
					c0.833-0.154,1.358-0.995,1.15-1.816c-0.112-0.441-0.246-0.817-0.316-1.002c-0.034-0.09-0.057-0.181-0.072-0.276
					c-0.476-3.028-6.305-47.601-7.856-56.045c-1.603-8.726-32.551-10.685-32.551-10.685l-4.115-2.906l-29.008-0.402
					c0,0,0.356,13.459,7.123,17.733c6.767,4.274,46.263,3.027,46.263,3.027l8.126,50.781c0.059,0.325,0.01,0.666-0.156,0.952
					C167.908,262.362,169.488,265.252,169.639,265.678z"/>
			</g>
			<g>
				<g>
					<g>
						<g>
							<rect x="153.012" y="147.997" style="fill:#2D4C71;" width="5.217" height="32.573"/>
							<rect x="153.436" y="147.997" style="fill:#E3E2D7;" width="4.432" height="1.763"/>
							<rect x="153.012" y="149.96" style="fill:#5282BD;" width="5.217" height="32.572"/>
							<rect x="157.637" y="149.96" style="fill:#5282BD;" width="0.591" height="32.572"/>
						</g>
						<g>
							<rect x="158.229" y="147.997" style="fill:#864E2C;" width="5.217" height="32.573"/>
							<rect x="158.653" y="147.997" style="fill:#E3E2D7;" width="4.432" height="1.763"/>
							<rect x="158.229" y="149.96" style="fill:#B46651;" width="5.217" height="32.572"/>
							<rect x="162.854" y="149.96" style="fill:#9C4E42;" width="0.591" height="32.572"/>
						</g>
						<g>
							<rect x="163.445" y="151.324" style="fill:#18534E;" width="4.714" height="29.434"/>
							<rect x="163.829" y="151.324" style="fill:#E3E2D7;" width="4.005" height="1.593"/>
							<rect x="163.445" y="153.098" style="fill:#49A199;" width="4.714" height="29.434"/>
							<rect x="167.625" y="153.098" style="opacity:0.51;fill:#456EA0;" width="0.534" height="29.434"/>
						</g>
						<g>
							<rect x="168.16" y="150.404" style="fill:#2D4C71;" width="4.853" height="30.302"/>
							<rect x="168.555" y="150.404" style="fill:#E3E2D7;" width="4.123" height="1.64"/>
							<rect x="168.16" y="152.231" style="fill:#5282BD;" width="4.853" height="30.302"/>
							<rect x="172.463" y="152.231" style="fill:#5282BD;" width="0.55" height="30.302"/>
						</g>
						<g>
							<rect x="173.013" y="150.404" style="fill:#864E2C;" width="4.853" height="30.302"/>
							<rect x="173.408" y="150.404" style="fill:#E3E2D7;" width="4.123" height="1.64"/>
							<rect x="173.013" y="152.231" style="fill:#B46651;" width="4.853" height="30.302"/>
							<rect x="177.316" y="152.231" style="fill:#9C4E42;" width="0.55" height="30.302"/>
						</g>
						<g>
							<rect x="177.866" y="153.5" style="fill:#18534E;" width="4.386" height="27.382"/>
							<rect x="178.223" y="153.5" style="fill:#E3E2D7;" width="3.726" height="1.482"/>
							<rect x="177.866" y="155.15" style="fill:#49A199;" width="4.386" height="27.382"/>
							<rect x="181.755" y="155.15" style="opacity:0.51;fill:#456EA0;" width="0.497" height="27.382"/>
						</g>
					</g>
					<g>
						<g>
							<path style="fill:#E2DFCA;" d="M186.26,181.566c0.015,0.591-2.293,1.129-5.156,1.202c-2.862,0.073-5.195-0.348-5.21-0.939
								c-0.015-0.591,2.293-1.129,5.156-1.202C183.912,180.555,186.245,180.975,186.26,181.566z"/>
							<path style="fill:#EDEAD3;" d="M187.846,173.696c0,0,0.617-1.616,3.235-1.212c2.617,0.404,2.445,4.54-0.054,6.307
								c-2.109,1.491-6.169,2.176-6.169,2.176v-1.056c0,0,3.036-0.084,5.178-1.68c2.284-1.702,1.912-4.136,0.582-4.481
								c-1.842-0.477-2.958,1.981-2.958,1.981L187.846,173.696z"/>
							<path style="fill:#E2DFCA;" d="M187.082,179.566c-1.241,0.317-2.224,0.345-2.224,0.345v1.056c0,0,0.72-0.122,1.709-0.373
								C186.744,180.254,186.917,179.912,187.082,179.566z"/>
							<path style="fill:#E2DFCA;" d="M188.666,174.343c0.129-0.559,0.246-1.122,0.325-1.689c-0.887,0.369-1.145,1.042-1.145,1.042
								l-0.186,2.035C187.66,175.731,188.019,174.94,188.666,174.343z"/>
							<path style="fill:#EDEAD3;" d="M188.593,171.781l-7.659-0.1h-0.226l-7.658,0.1c0,0,0.333,5.306,3.089,9.988
								c0.002,0.004,0.005,0.008,0.007,0.012l0,0l0,0c0.258,0.426,2.253,0.757,4.676,0.757c2.447,0,4.457-0.338,4.683-0.77
								C188.26,177.087,188.593,171.781,188.593,171.781z"/>
							<path style="fill:#BDBDAC;" d="M188.593,171.781c0,0.388-3.48,0.703-7.772,0.703s-7.771-0.315-7.771-0.703
								c0-0.388,3.479-0.703,7.771-0.703S188.593,171.393,188.593,171.781z"/>
						</g>
					</g>
				</g>
				<g>
					<path style="fill:#F2D7BD;" d="M130.028,177.064c-2.356-2.294-3.238-6.287-3.995-9.35c-0.994-4.006-1.387-8.083-2.092-12.131
						c-0.469-2.699-0.552-6.778,2.434-8.096c4.038-1.783,10.403-2.173,9.137,14.095l1.096,9.809l23.446,5.423l0.543,3.729
						C160.597,180.542,132.784,179.747,130.028,177.064z"/>
				</g>
				<g>
					<g>
						<path style="fill:#C2827D;" d="M131.922,164.541c-2.814,0.503-5.64,0.856-8.443,0.675c-0.621-2.661-1.136-7.218-1.8-12.772
							c-0.779-6.503,0.468-16.124,7.012-13.802c0,0,4.722,2.824,6.117,7.821c0.729,2.609,2.286,11.659,2.88,16.238
							C135.887,163.543,133.991,164.173,131.922,164.541z"/>
					</g>
				</g>
				<path style="fill:#F2D7BD;" d="M121.984,133.776c0.081-0.116,0.428-1.513,0.496-1.635c2.575,0.561,5.93-0.558,8.256,0.784
					l-1.609,6.098c0,0,2.732,4.607,2.037,5.355c-0.697,0.748-10.088-6.103-10.088-6.103S122.349,134.24,121.984,133.776z"/>
				<path style="fill:#F2BC97;" d="M121.984,133.776c0.081-0.116,0.428-1.513,0.496-1.635c2.575,0.561,5.93-0.558,8.256,0.784
					l-1.609,6.098c0,0,2.732,4.607,2.037,5.355c-0.697,0.748-10.088-6.103-10.088-6.103S122.349,134.24,121.984,133.776z"/>
				<g>
					<g>
						<path style="fill:#C26C2F;" d="M140.826,109.111c0.547-1.989-2.873-4.83-2.873-4.83s0.731,1.897-0.991,3.16
							c0.619-4.756-2.412-6.359-2.412-6.359s1.778,8.366-5.581,10.746c2.324-2.431,0.936-5.317,0.936-5.317
							s-0.976,4.134-3.759,5.591c0.288-2.223-1.341-3.197-1.341-3.197s1.444,6.498-0.247,10.437
							c-1.612-4.565-4.718-4.269-6.116-2.023c-1.397,2.245,0.369,8.576,4.678,7.424c2.548,3.135,2.103,6.52,2.103,6.52l-1.831-2.55
							l0.083,3.238l-0.86-2.184c0,0,0.245,1.976-0.638,3.442c-0.592-0.661-1.866-1.15-3.548-1.673
							c-2.693-0.836-12.956-3.104-13.481-6.716c-1.13,1.749-1.13,1.749-1.13,1.749s-1.253-1.753-1.194-3.147
							c-0.499,1.815-0.52,2.677-0.52,2.677s-4.802-3.816-2.31-8.547c-1.943,0.765-2.036,1.5-2.036,1.5s-0.439-5.107,2.343-6.942
							c-2.191,0.479-2.96-0.274-2.96-0.274s2.001-0.966,2.275-5.118c0.274-4.151,4.579-7.193,6.32-6.824
							c-2.114-1.773-3.03-1.591-3.03-1.591s2.313-1.315,4.581,0.286c-1.322-3.074-0.311-3.987-0.311-3.987s0.115,1.548,1.479,2.899
							c4.311-6.618,8.874-9.418,25.209-6.484c16.336,2.935,16.196,9.44,15.452,12.501c-0.21-3.918-3.196-4.938-3.196-4.938
							s3.373,4.283,0.31,8.785c0.438-3.486-2.85-6.692-2.85-6.692s2.475,3.598-1.225,8.138c0,0-0.001,0.017-0.003,0.023
							C141.732,109.077,141.282,109.206,140.826,109.111z"/>
						<path style="fill:#F2D7BD;" d="M118.443,117.32c1.397-2.245,4.504-2.542,6.116,2.023c1.691-3.939,0.247-10.437,0.247-10.437
							s1.63,0.974,1.341,3.197c2.784-1.456,3.759-5.591,3.759-5.591s1.387,2.886-0.936,5.317c7.359-2.38,5.581-10.746,5.581-10.746
							s3.032,1.603,2.412,6.359c1.722-1.264,0.991-3.16,0.991-3.16s3.419,2.841,2.873,4.83c0.456,0.095,0.905-0.034,1.325-0.276
							c-0.05,0.252-0.909,4.695,0.796,6.877c1.752,2.245,3.953,2.617,3.444,3.938c-0.509,1.319-3.539,2.241-3.539,2.241
							s0.38,3.877-1.828,7.829c-2.2,3.937-4.345,5.85-18.66,2.635c0.415-1.278,0.253-2.586,0.253-2.586l0.86,2.184l-0.083-3.238
							l1.831,2.55c0,0,0.444-3.385-2.103-6.52C118.812,125.896,117.046,119.565,118.443,117.32z"/>
						<path style="opacity:0.5;fill:#FFCAA6;" d="M118.443,117.32c1.397-2.245,4.504-2.542,6.116,2.023
							c1.691-3.939,0.247-10.437,0.247-10.437s1.63,0.974,1.341,3.197c2.784-1.456,3.759-5.591,3.759-5.591s1.387,2.886-0.936,5.317
							c7.359-2.38,5.581-10.746,5.581-10.746s3.032,1.603,2.412,6.359c1.722-1.264,0.991-3.16,0.991-3.16s3.419,2.841,2.873,4.83
							c0.456,0.095,0.905-0.034,1.325-0.276c-0.05,0.252-0.909,4.695,0.796,6.877c1.752,2.245,3.953,2.617,3.444,3.938
							c-0.509,1.319-3.539,2.241-3.539,2.241s0.38,3.877-1.828,7.829c-2.2,3.937-4.345,5.85-18.66,2.635
							c0.415-1.278,0.253-2.586,0.253-2.586l0.86,2.184l-0.083-3.238l1.831,2.55c0,0,0.444-3.385-2.103-6.52
							C118.812,125.896,117.046,119.565,118.443,117.32z"/>
					</g>
					<g>
						<path style="fill:#7B412C;" d="M137.498,116.519c-0.017,0.879,0.26,1.554,0.615,1.504c0.361-0.051,0.659-0.802,0.673-1.682
							c0.021-0.878-0.26-1.548-0.611-1.501C137.816,114.889,137.512,115.645,137.498,116.519z"/>
						<path style="fill:#FFFFFF;" d="M138.248,115.756c0.013,0.258,0.112,0.449,0.223,0.428c0.11-0.028,0.181-0.256,0.165-0.519
							c-0.013-0.266-0.11-0.458-0.225-0.436C138.307,115.259,138.231,115.489,138.248,115.756z"/>
					</g>
					<path style="fill:#AA5F27;" d="M135.416,112.827c0,0,4.108-2.031,5.05,0.031C140.498,110.09,137.845,110.566,135.416,112.827z"
						/>
					<path style="fill:#C19168;" d="M142.524,125.676c0.003-0.001-0.041,0.04-0.116,0.086c-0.029,0.024-0.089,0.041-0.139,0.065
						c-0.049,0.028-0.12,0.036-0.189,0.055c-0.132,0.047-0.309,0.039-0.479,0.065c-0.089,0.01-0.188-0.009-0.281-0.003
						c-0.095-0.003-0.191,0.003-0.289-0.001c-0.196-0.018-0.393-0.037-0.582-0.039c-0.187-0.005-0.363-0.038-0.518-0.041
						c-0.308-0.013-0.528,0.007-0.528,0.007s0.183,0.107,0.478,0.231c0.147,0.056,0.317,0.134,0.514,0.17
						c0.194,0.041,0.405,0.066,0.618,0.094c0.219-0.009,0.436-0.015,0.637-0.049c0.104-0.028,0.2-0.062,0.29-0.091
						c0.091-0.021,0.17-0.08,0.242-0.126c0.074-0.042,0.134-0.085,0.179-0.145c0.046-0.055,0.089-0.092,0.11-0.139
						C142.522,125.728,142.524,125.676,142.524,125.676z"/>
					<path style="opacity:0.5;fill:#FAD4CA;" d="M138.708,120.577c0.014,0.529-1.002,0.981-2.271,1.01
						c-1.274,0.028-2.312-0.377-2.329-0.904c-0.011-0.53,1.01-0.981,2.276-1.012C137.658,119.645,138.696,120.049,138.708,120.577z"
						/>
					<path style="fill:#C19168;" d="M121.574,119.067c-0.677-0.704-1.672-0.585-2.294,0.08c-0.063,0.066,0.025,0.076,0.072,0.033
						c0.913-0.847,2.008-0.093,2.393,0.839c0.03,0.067,0.049,0.136,0.072,0.203c-0.243,0.073-0.458,0.188-0.669,0.349
						c-0.139,0.107-0.261,0.223-0.372,0.357c-0.118,0.143-0.144,0.318-0.249,0.46c-0.049,0.069,0.054,0.06,0.086,0.023
						c0.056-0.063,0.066-0.077,0.101-0.156c0.085-0.187,0.22-0.321,0.378-0.449c0.238-0.191,0.498-0.283,0.774-0.374
						c0.101,0.51,0.034,1.032,0.011,1.553c-0.006,0.157,0.228,0.011,0.257-0.066C122.48,120.984,122.267,119.789,121.574,119.067z"
						/>
				</g>
				<path style="fill:#E1A495;" d="M136.447,187.673c0.057,2.764-2.92,4.5-4.537,4.614c-6.205,0.435-20.208-0.957-23.486-2.624
					c-4.953-2.52-1.208-6.502-1.499-17.634c4.145-36.495,9.895-33.984,15.061-37.279c-1.228-0.504,8.315,9.828,8.964,8.897
					c0.649-0.929-1.871-4.463-1.871-4.463l0.2-0.831c0,0,2.947,3.263,3.604,4.861c0.658,1.598-0.777,2.421-0.777,2.421
					s4.684,18.626,3.87,32.013C135.825,188.134,136.447,187.673,136.447,187.673z"/>
				<g>
					<path style="fill:#F2D7BD;" d="M122.844,176.922c-2.421-2.357-3.327-6.46-4.105-9.608c-1.022-4.117-1.426-8.306-2.15-12.466
						c-0.482-2.773-0.567-6.965,2.501-8.319c4.15-1.832,10.69-2.233,9.389,14.484l1.126,10.079l24.093,5.572l0.558,3.832
						C154.256,180.496,125.676,179.679,122.844,176.922z"/>
					<g>
						<path style="fill:#F2D7BD;" d="M151.439,176.674c0.362-0.408,0.818-0.714,1.25-1c0.461-0.305,0.939-0.574,1.424-0.818
							c0.985-0.493,2.003-0.881,3.023-1.253c0.527-0.192,1.055-0.381,1.581-0.579c0.512-0.193,1.027-0.353,1.566-0.27
							c1.144,0.175,2.223,0.795,3.294,1.28c1.127,0.51,2.233,1.09,3.311,1.739c0.472,0.284,0.983,0.513,1.433,0.846
							c0.38,0.281,0.54,0.707,0.658,1.199c0.142,0.952,0.249,1.932,0.705,2.73c0.183,0.32,0.633,0.905,0.779,1.43
							c0.052,0.299-0.03,0.531-0.341,0.625c-0.324,0.098-0.687-0.018-0.993-0.145c-0.181-0.075-0.375-0.168-0.551-0.289
							c-0.203,0.339-0.785,0.298-1.067,0.273c-0.253-0.023-0.505-0.064-0.753-0.13c-0.439-0.117-0.897-0.274-1.325-0.481
							c0.03,0.088,0.05,0.18,0.046,0.282c-0.024,0.535-0.676,0.429-0.967,0.392c-0.767-0.096-1.517-0.32-2.261-0.562
							c-0.731-0.237-1.46-0.5-2.208-0.645c-0.671-0.13-1.346-0.125-2.022-0.063c-0.796,0.072-1.594,0.125-2.388,0.231
							c-0.813,0.108-1.582,0.348-2.364,0.624c-0.008,0.003-0.019-0.002-0.029-0.004c-0.543,0.22-1.207,0.025-1.688-0.305
							c-0.723-0.496-1.117-1.412-1.108-2.413C150.453,178.358,150.829,177.361,151.439,176.674z"/>
						<path style="opacity:0.58;fill:#D18C59;" d="M158.519,178.222c0.323,0.094,0.657,0.115,0.982,0.203
							c0.302,0.082,0.598,0.197,0.887,0.333c0.639,0.3,1.256,0.682,1.878,1.033c0.631,0.357,1.26,0.72,1.882,1.101
							c0.271,0.166,0.547,0.318,0.825,0.466c0.21,0.112,0.44,0.242,0.577,0.473c0.042,0.071-0.041,0.116-0.085,0.071
							c-0.21-0.215-0.452-0.336-0.702-0.467c-0.284-0.149-0.559-0.32-0.835-0.49c-0.598-0.369-1.21-0.703-1.815-1.057
							c-0.581-0.34-1.155-0.709-1.751-1.007c-0.315-0.157-0.639-0.292-0.972-0.378c-0.294-0.076-0.589-0.11-0.874-0.232
							C158.493,178.262,158.488,178.213,158.519,178.222z"/>
						<path style="opacity:0.58;fill:#D18C59;" d="M161.035,176.37c1.41,0.434,2.658,1.517,3.885,2.423
							c0.699,0.516,1.388,1.053,2.073,1.596c0.337,0.267,0.693,0.518,1.013,0.813c0.245,0.225,0.429,0.55,0.608,0.848
							c0.045,0.075-0.05,0.095-0.088,0.049c-0.253-0.303-0.416-0.652-0.717-0.902c-0.313-0.26-0.63-0.514-0.946-0.768
							c-0.659-0.527-1.324-1.043-1.997-1.542c-1.239-0.918-2.458-1.867-3.833-2.464C161.006,176.413,161.001,176.359,161.035,176.37
							z"/>
						<path style="opacity:0.58;fill:#D18C59;" d="M163.695,175.49c1.294,0.842,2.564,1.756,3.785,2.747
							c0.577,0.469,1.187,0.944,1.675,1.549c0.217,0.27,0.414,0.565,0.604,0.863c0.121,0.19,0.232,0.392,0.361,0.574
							c0.097,0.138,0.205,0.26,0.283,0.416c0.049,0.097-0.073,0.113-0.111,0.039c-0.087-0.172-0.213-0.307-0.317-0.463
							c-0.098-0.147-0.187-0.302-0.282-0.451c-0.205-0.325-0.419-0.645-0.657-0.935c-0.502-0.612-1.135-1.089-1.723-1.57
							c-1.182-0.968-2.426-1.813-3.632-2.733C163.662,175.511,163.672,175.475,163.695,175.49z"/>
					</g>
				</g>
				<g>
					<g>
						<path style="fill:#C2827D;" d="M124.567,163.557c-2.814,0.503-5.64,0.856-8.443,0.675c-0.621-2.661-1.136-7.218-1.8-12.772
							c-0.779-6.503,0.468-16.124,7.012-13.802c0,0,4.722,2.824,6.117,7.821c0.729,2.609,2.286,11.659,2.88,16.238
							C128.532,162.559,126.636,163.188,124.567,163.557z"/>
					</g>
				</g>
			</g>
		</g>
		<g>
			
				<rect x="154.926" y="178.597" transform="matrix(-1 -1.224647e-16 1.224647e-16 -1 345.6543 359.2288)" style="fill:#646669;" width="35.803" height="2.035"/>
			
				<rect x="185.666" y="179.778" transform="matrix(-1 -1.224647e-16 1.224647e-16 -1 374.0954 359.9825)" style="fill:#313436;" width="2.763" height="0.427"/>
			
				<rect x="181.677" y="179.778" transform="matrix(-1 -1.224647e-16 1.224647e-16 -1 366.118 359.9825)" style="fill:#313436;" width="2.763" height="0.427"/>
			<g>
				<polygon style="fill:#646669;" points="200.753,142.029 202.349,142.029 190.539,180.632 188.943,180.632 				"/>
			</g>
		</g>
		<g>
			<g>
				<g>
					<g>
						<g>
							<path style="fill:#825138;" d="M237.096,271.703l-2.125,0.385c-0.509,0.092-1.001-0.234-1.113-0.739L209.6,188.279
								c-0.119-0.535,0.23-1.061,0.769-1.159l6.035-1.094c0.524-0.095,1.026,0.253,1.121,0.777l20.348,83.778
								C237.967,271.106,237.62,271.608,237.096,271.703z"/>
						</g>
					</g>
				</g>
			</g>
			<g>
				<g>
					<g>
						<g>
							<path style="fill:#A4775A;" d="M207.91,284.177l2.142-0.276c0.513-0.066,0.883-0.526,0.837-1.041l-9.077-98.167
								c-0.048-0.546-0.541-0.941-1.084-0.871l-6.083,0.784c-0.528,0.068-0.901,0.551-0.833,1.08l13.018,97.659
								C206.898,283.872,207.382,284.245,207.91,284.177z"/>
						</g>
					</g>
				</g>
			</g>
			<rect x="150.21" y="181.477" style="fill:#72533D;" width="95.242" height="10.255"/>
			<g>
				<rect x="146.465" y="181.025" style="fill:#A4775A;" width="106.334" height="4.487"/>
			</g>
		</g>
		<g>
			<g>
				<g>
					<path style="fill:#4F5153;" d="M151.154,273.04c0.033,0,0.067-0.002,0.102-0.004c0.583-0.053,1.011-0.547,0.956-1.103
						l-6.114-61.555c-0.056-0.556-0.567-0.958-1.156-0.912c-0.583,0.053-1.011,0.547-0.956,1.103l6.115,61.555
						C150.152,272.648,150.614,273.04,151.154,273.04z"/>
				</g>
				<g>
					<path style="fill:#4F5153;" d="M103.958,273.04c-0.034,0-0.067-0.002-0.102-0.004c-0.583-0.053-1.011-0.547-0.956-1.103
						l6.114-61.555c0.056-0.556,0.567-0.958,1.157-0.912c0.583,0.053,1.011,0.547,0.956,1.103l-6.114,61.555
						C104.961,272.648,104.499,273.04,103.958,273.04z"/>
				</g>
			</g>
			<g>
				<path style="fill:#4583A7;" d="M106.478,210.002c0,0,2.566-6.342,7.291-6.948c4.725-0.606,12.917,1.349,27.664,0.816
					c14.747-0.533,17.751-1.244,19.799,1.866c0,0,0.956,1.955,0.137,4.088c-0.819,2.133-3.236,3.96-7.148,3.846
					C150.309,213.557,109.073,216.312,106.478,210.002z"/>
				<path style="fill:#AFB1B4;" d="M151.441,205.363c-6.711-0.767-41.495,5.129-45.948-3.596
					c-7.857-15.396-14.887-46.76-14.887-46.76s-0.923-3.117-2.831-2.863c-1.859,0.248-2.988,1.466-2.222,4.293l-0.004,0.001
					c0,0,8.398,30.314,10.179,36.549c0.213,0.744,4.073,19.673,15.416,21.201c11.344,1.528,42.888,0.399,42.888,0.399
					s2.962,0.075,3.349-2.466C157.769,209.581,158.152,206.13,151.441,205.363z"/>
				<g>
					<g>
						<path style="fill:#AFB1B4;" d="M98.21,196.998c0,0,2.301,8.484,5.968,12.439c0,0,2.948,3.164,6.831,4.099
							c0,0,4.386,0.719,17.328,0.647c12.943-0.072,27.035,0.647,27.611-1.222c0,0-1.222,0.288-3.883,0.647
							c-2.66,0.359-19.414,0.072-26.46-0.072c-7.046-0.144-12.06,0.08-15.351-0.899C105.903,211.343,101.877,206.993,98.21,196.998z
							"/>
					</g>
				</g>
			</g>
		</g>
	</g>
</g>
</svg>
